<svg xmlns="http://www.w3.org/2000/svg" xmlns:xlink="http://www.w3.org/1999/xlink" width="500" zoomAndPan="magnify" viewBox="0 0 375 374.999991" height="500" preserveAspectRatio="xMidYMid meet" version="1.0"><defs><filter x="0%" y="0%" width="100%" height="100%" id="b3e5905cc0"><feColorMatrix values="0 0 0 0 1 0 0 0 0 1 0 0 0 0 1 0 0 0 1 0" color-interpolation-filters="sRGB"/></filter><g/><clipPath id="7ee667ef80"><path d="M 110.984375 79.320312 L 264.015625 79.320312 L 264.015625 232.351562 L 110.984375 232.351562 Z M 110.984375 79.320312 " clip-rule="nonzero"/></clipPath><clipPath id="1fbf1ba67c"><path d="M 187.5 79.320312 C 145.242188 79.320312 110.984375 113.578125 110.984375 155.835938 C 110.984375 198.09375 145.242188 232.351562 187.5 232.351562 C 229.757812 232.351562 264.015625 198.09375 264.015625 155.835938 C 264.015625 113.578125 229.757812 79.320312 187.5 79.320312 Z M 187.5 79.320312 " clip-rule="nonzero"/></clipPath><clipPath id="610e435a21"><path d="M 0.984375 0.320312 L 154.015625 0.320312 L 154.015625 153.351562 L 0.984375 153.351562 Z M 0.984375 0.320312 " clip-rule="nonzero"/></clipPath><clipPath id="f254b9ec67"><path d="M 77.5 0.320312 C 35.242188 0.320312 0.984375 34.578125 0.984375 76.835938 C 0.984375 119.09375 35.242188 153.351562 77.5 153.351562 C 119.757812 153.351562 154.015625 119.09375 154.015625 76.835938 C 154.015625 34.578125 119.757812 0.320312 77.5 0.320312 Z M 77.5 0.320312 " clip-rule="nonzero"/></clipPath><linearGradient x1="0.000000429589" gradientTransform="matrix(0.59778, 0, 0, 0.59778, 0.984133, 0.319365)" y1="128" x2="255.999998" gradientUnits="userSpaceOnUse" y2="128" id="f550d717f4"><stop stop-opacity="1" stop-color="rgb(0%, 0%, 0%)" offset="0"/><stop stop-opacity="1" stop-color="rgb(0.390625%, 0.390625%, 0.390625%)" offset="0.00390625"/><stop stop-opacity="1" stop-color="rgb(0.78125%, 0.78125%, 0.78125%)" offset="0.0078125"/><stop stop-opacity="1" stop-color="rgb(1.171875%, 1.171875%, 1.171875%)" offset="0.0117187"/><stop stop-opacity="1" stop-color="rgb(1.5625%, 1.5625%, 1.5625%)" offset="0.015625"/><stop stop-opacity="1" stop-color="rgb(1.953125%, 1.953125%, 1.953125%)" offset="0.0195312"/><stop stop-opacity="1" stop-color="rgb(2.34375%, 2.34375%, 2.34375%)" offset="0.0234375"/><stop stop-opacity="1" stop-color="rgb(2.734375%, 2.734375%, 2.734375%)" offset="0.0273437"/><stop stop-opacity="1" stop-color="rgb(3.125%, 3.125%, 3.125%)" offset="0.03125"/><stop stop-opacity="1" stop-color="rgb(3.515625%, 3.515625%, 3.515625%)" offset="0.0351562"/><stop stop-opacity="1" stop-color="rgb(3.90625%, 3.90625%, 3.90625%)" offset="0.0390625"/><stop stop-opacity="1" stop-color="rgb(4.296875%, 4.296875%, 4.296875%)" offset="0.0429687"/><stop stop-opacity="1" stop-color="rgb(4.6875%, 4.6875%, 4.6875%)" offset="0.046875"/><stop stop-opacity="1" stop-color="rgb(5.078125%, 5.078125%, 5.078125%)" offset="0.0507812"/><stop stop-opacity="1" stop-color="rgb(5.46875%, 5.46875%, 5.46875%)" offset="0.0546875"/><stop stop-opacity="1" stop-color="rgb(5.859375%, 5.859375%, 5.859375%)" offset="0.0585937"/><stop stop-opacity="1" stop-color="rgb(6.25%, 6.25%, 6.25%)" offset="0.0625"/><stop stop-opacity="1" stop-color="rgb(6.640625%, 6.640625%, 6.640625%)" offset="0.0664062"/><stop stop-opacity="1" stop-color="rgb(7.03125%, 7.03125%, 7.03125%)" offset="0.0703125"/><stop stop-opacity="1" stop-color="rgb(7.421875%, 7.421875%, 7.421875%)" offset="0.0742187"/><stop stop-opacity="1" stop-color="rgb(7.8125%, 7.8125%, 7.8125%)" offset="0.078125"/><stop stop-opacity="1" stop-color="rgb(8.203125%, 8.203125%, 8.203125%)" offset="0.0820312"/><stop stop-opacity="1" stop-color="rgb(8.59375%, 8.59375%, 8.59375%)" offset="0.0859375"/><stop stop-opacity="1" stop-color="rgb(8.984375%, 8.984375%, 8.984375%)" offset="0.0898437"/><stop stop-opacity="1" stop-color="rgb(9.375%, 9.375%, 9.375%)" offset="0.09375"/><stop stop-opacity="1" stop-color="rgb(9.765625%, 9.765625%, 9.765625%)" offset="0.0976562"/><stop stop-opacity="1" stop-color="rgb(10.15625%, 10.15625%, 10.15625%)" offset="0.101562"/><stop stop-opacity="1" stop-color="rgb(10.546875%, 10.546875%, 10.546875%)" offset="0.105469"/><stop stop-opacity="1" stop-color="rgb(10.9375%, 10.9375%, 10.9375%)" offset="0.109375"/><stop stop-opacity="1" stop-color="rgb(11.328125%, 11.328125%, 11.328125%)" offset="0.113281"/><stop stop-opacity="1" stop-color="rgb(11.71875%, 11.71875%, 11.71875%)" offset="0.117187"/><stop stop-opacity="1" stop-color="rgb(12.109375%, 12.109375%, 12.109375%)" offset="0.121094"/><stop stop-opacity="1" stop-color="rgb(12.5%, 12.5%, 12.5%)" offset="0.125"/><stop stop-opacity="1" stop-color="rgb(12.890625%, 12.890625%, 12.890625%)" offset="0.128906"/><stop stop-opacity="1" stop-color="rgb(13.28125%, 13.28125%, 13.28125%)" offset="0.132812"/><stop stop-opacity="1" stop-color="rgb(13.671875%, 13.671875%, 13.671875%)" offset="0.136719"/><stop stop-opacity="1" stop-color="rgb(14.0625%, 14.0625%, 14.0625%)" offset="0.140625"/><stop stop-opacity="1" stop-color="rgb(14.453125%, 14.453125%, 14.453125%)" offset="0.144531"/><stop stop-opacity="1" stop-color="rgb(14.84375%, 14.84375%, 14.84375%)" offset="0.148437"/><stop stop-opacity="1" stop-color="rgb(15.234375%, 15.234375%, 15.234375%)" offset="0.152344"/><stop stop-opacity="1" stop-color="rgb(15.625%, 15.625%, 15.625%)" offset="0.15625"/><stop stop-opacity="1" stop-color="rgb(16.015625%, 16.015625%, 16.015625%)" offset="0.160156"/><stop stop-opacity="1" stop-color="rgb(16.40625%, 16.40625%, 16.40625%)" offset="0.164062"/><stop stop-opacity="1" stop-color="rgb(16.796875%, 16.796875%, 16.796875%)" offset="0.167969"/><stop stop-opacity="1" stop-color="rgb(17.1875%, 17.1875%, 17.1875%)" offset="0.171875"/><stop stop-opacity="1" stop-color="rgb(17.578125%, 17.578125%, 17.578125%)" offset="0.175781"/><stop stop-opacity="1" stop-color="rgb(17.96875%, 17.96875%, 17.96875%)" offset="0.179687"/><stop stop-opacity="1" stop-color="rgb(18.357849%, 18.357849%, 18.357849%)" offset="0.183594"/><stop stop-opacity="1" stop-color="rgb(18.748474%, 18.748474%, 18.748474%)" offset="0.1875"/><stop stop-opacity="1" stop-color="rgb(19.139099%, 19.139099%, 19.139099%)" offset="0.191406"/><stop stop-opacity="1" stop-color="rgb(19.529724%, 19.529724%, 19.529724%)" offset="0.195312"/><stop stop-opacity="1" stop-color="rgb(19.920349%, 19.920349%, 19.920349%)" offset="0.199219"/><stop stop-opacity="1" stop-color="rgb(20.310974%, 20.310974%, 20.310974%)" offset="0.203125"/><stop stop-opacity="1" stop-color="rgb(20.701599%, 20.701599%, 20.701599%)" offset="0.207031"/><stop stop-opacity="1" stop-color="rgb(21.092224%, 21.092224%, 21.092224%)" offset="0.210937"/><stop stop-opacity="1" stop-color="rgb(21.482849%, 21.482849%, 21.482849%)" offset="0.214844"/><stop stop-opacity="1" stop-color="rgb(21.873474%, 21.873474%, 21.873474%)" offset="0.21875"/><stop stop-opacity="1" stop-color="rgb(22.264099%, 22.264099%, 22.264099%)" offset="0.222656"/><stop stop-opacity="1" stop-color="rgb(22.654724%, 22.654724%, 22.654724%)" offset="0.226562"/><stop stop-opacity="1" stop-color="rgb(23.045349%, 23.045349%, 23.045349%)" offset="0.230469"/><stop stop-opacity="1" stop-color="rgb(23.435974%, 23.435974%, 23.435974%)" offset="0.234375"/><stop stop-opacity="1" stop-color="rgb(23.826599%, 23.826599%, 23.826599%)" offset="0.238281"/><stop stop-opacity="1" stop-color="rgb(24.217224%, 24.217224%, 24.217224%)" offset="0.242187"/><stop stop-opacity="1" stop-color="rgb(24.607849%, 24.607849%, 24.607849%)" offset="0.246094"/><stop stop-opacity="1" stop-color="rgb(24.998474%, 24.998474%, 24.998474%)" offset="0.25"/><stop stop-opacity="1" stop-color="rgb(25.389099%, 25.389099%, 25.389099%)" offset="0.253906"/><stop stop-opacity="1" stop-color="rgb(25.779724%, 25.779724%, 25.779724%)" offset="0.257812"/><stop stop-opacity="1" stop-color="rgb(26.170349%, 26.170349%, 26.170349%)" offset="0.261719"/><stop stop-opacity="1" stop-color="rgb(26.560974%, 26.560974%, 26.560974%)" offset="0.265625"/><stop stop-opacity="1" stop-color="rgb(26.951599%, 26.951599%, 26.951599%)" offset="0.269531"/><stop stop-opacity="1" stop-color="rgb(27.342224%, 27.342224%, 27.342224%)" offset="0.273438"/><stop stop-opacity="1" stop-color="rgb(27.732849%, 27.732849%, 27.732849%)" offset="0.277344"/><stop stop-opacity="1" stop-color="rgb(28.123474%, 28.123474%, 28.123474%)" offset="0.28125"/><stop stop-opacity="1" stop-color="rgb(28.514099%, 28.514099%, 28.514099%)" offset="0.285156"/><stop stop-opacity="1" stop-color="rgb(28.904724%, 28.904724%, 28.904724%)" offset="0.289062"/><stop stop-opacity="1" stop-color="rgb(29.295349%, 29.295349%, 29.295349%)" offset="0.292969"/><stop stop-opacity="1" stop-color="rgb(29.685974%, 29.685974%, 29.685974%)" offset="0.296875"/><stop stop-opacity="1" stop-color="rgb(30.076599%, 30.076599%, 30.076599%)" offset="0.300781"/><stop stop-opacity="1" stop-color="rgb(30.467224%, 30.467224%, 30.467224%)" offset="0.304688"/><stop stop-opacity="1" stop-color="rgb(30.857849%, 30.857849%, 30.857849%)" offset="0.308594"/><stop stop-opacity="1" stop-color="rgb(31.248474%, 31.248474%, 31.248474%)" offset="0.3125"/><stop stop-opacity="1" stop-color="rgb(31.639099%, 31.639099%, 31.639099%)" offset="0.316406"/><stop stop-opacity="1" stop-color="rgb(32.029724%, 32.029724%, 32.029724%)" offset="0.320312"/><stop stop-opacity="1" stop-color="rgb(32.420349%, 32.420349%, 32.420349%)" offset="0.324219"/><stop stop-opacity="1" stop-color="rgb(32.810974%, 32.810974%, 32.810974%)" offset="0.328125"/><stop stop-opacity="1" stop-color="rgb(33.201599%, 33.201599%, 33.201599%)" offset="0.332031"/><stop stop-opacity="1" stop-color="rgb(33.592224%, 33.592224%, 33.592224%)" offset="0.335938"/><stop stop-opacity="1" stop-color="rgb(33.982849%, 33.982849%, 33.982849%)" offset="0.339844"/><stop stop-opacity="1" stop-color="rgb(34.373474%, 34.373474%, 34.373474%)" offset="0.34375"/><stop stop-opacity="1" stop-color="rgb(34.764099%, 34.764099%, 34.764099%)" offset="0.347656"/><stop stop-opacity="1" stop-color="rgb(35.154724%, 35.154724%, 35.154724%)" offset="0.351562"/><stop stop-opacity="1" stop-color="rgb(35.545349%, 35.545349%, 35.545349%)" offset="0.355469"/><stop stop-opacity="1" stop-color="rgb(35.935974%, 35.935974%, 35.935974%)" offset="0.359375"/><stop stop-opacity="1" stop-color="rgb(36.326599%, 36.326599%, 36.326599%)" offset="0.363281"/><stop stop-opacity="1" stop-color="rgb(36.717224%, 36.717224%, 36.717224%)" offset="0.367188"/><stop stop-opacity="1" stop-color="rgb(37.107849%, 37.107849%, 37.107849%)" offset="0.371094"/><stop stop-opacity="1" stop-color="rgb(37.498474%, 37.498474%, 37.498474%)" offset="0.375"/><stop stop-opacity="1" stop-color="rgb(37.889099%, 37.889099%, 37.889099%)" offset="0.378906"/><stop stop-opacity="1" stop-color="rgb(38.279724%, 38.279724%, 38.279724%)" offset="0.382812"/><stop stop-opacity="1" stop-color="rgb(38.670349%, 38.670349%, 38.670349%)" offset="0.386719"/><stop stop-opacity="1" stop-color="rgb(39.060974%, 39.060974%, 39.060974%)" offset="0.390625"/><stop stop-opacity="1" stop-color="rgb(39.451599%, 39.451599%, 39.451599%)" offset="0.394531"/><stop stop-opacity="1" stop-color="rgb(39.842224%, 39.842224%, 39.842224%)" offset="0.398438"/><stop stop-opacity="1" stop-color="rgb(40.232849%, 40.232849%, 40.232849%)" offset="0.402344"/><stop stop-opacity="1" stop-color="rgb(40.623474%, 40.623474%, 40.623474%)" offset="0.40625"/><stop stop-opacity="1" stop-color="rgb(41.014099%, 41.014099%, 41.014099%)" offset="0.410156"/><stop stop-opacity="1" stop-color="rgb(41.404724%, 41.404724%, 41.404724%)" offset="0.414062"/><stop stop-opacity="1" stop-color="rgb(41.795349%, 41.795349%, 41.795349%)" offset="0.417969"/><stop stop-opacity="1" stop-color="rgb(42.185974%, 42.185974%, 42.185974%)" offset="0.421875"/><stop stop-opacity="1" stop-color="rgb(42.576599%, 42.576599%, 42.576599%)" offset="0.425781"/><stop stop-opacity="1" stop-color="rgb(42.967224%, 42.967224%, 42.967224%)" offset="0.429688"/><stop stop-opacity="1" stop-color="rgb(43.357849%, 43.357849%, 43.357849%)" offset="0.433594"/><stop stop-opacity="1" stop-color="rgb(43.748474%, 43.748474%, 43.748474%)" offset="0.4375"/><stop stop-opacity="1" stop-color="rgb(44.139099%, 44.139099%, 44.139099%)" offset="0.441406"/><stop stop-opacity="1" stop-color="rgb(44.529724%, 44.529724%, 44.529724%)" offset="0.445312"/><stop stop-opacity="1" stop-color="rgb(44.920349%, 44.920349%, 44.920349%)" offset="0.449219"/><stop stop-opacity="1" stop-color="rgb(45.310974%, 45.310974%, 45.310974%)" offset="0.453125"/><stop stop-opacity="1" stop-color="rgb(45.701599%, 45.701599%, 45.701599%)" offset="0.457031"/><stop stop-opacity="1" stop-color="rgb(46.092224%, 46.092224%, 46.092224%)" offset="0.460938"/><stop stop-opacity="1" stop-color="rgb(46.482849%, 46.482849%, 46.482849%)" offset="0.464844"/><stop stop-opacity="1" stop-color="rgb(46.873474%, 46.873474%, 46.873474%)" offset="0.46875"/><stop stop-opacity="1" stop-color="rgb(47.264099%, 47.264099%, 47.264099%)" offset="0.472656"/><stop stop-opacity="1" stop-color="rgb(47.654724%, 47.654724%, 47.654724%)" offset="0.476562"/><stop stop-opacity="1" stop-color="rgb(48.045349%, 48.045349%, 48.045349%)" offset="0.480469"/><stop stop-opacity="1" stop-color="rgb(48.435974%, 48.435974%, 48.435974%)" offset="0.484375"/><stop stop-opacity="1" stop-color="rgb(48.826599%, 48.826599%, 48.826599%)" offset="0.488281"/><stop stop-opacity="1" stop-color="rgb(49.217224%, 49.217224%, 49.217224%)" offset="0.492188"/><stop stop-opacity="1" stop-color="rgb(49.607849%, 49.607849%, 49.607849%)" offset="0.496094"/><stop stop-opacity="1" stop-color="rgb(49.998474%, 49.998474%, 49.998474%)" offset="0.5"/><stop stop-opacity="1" stop-color="rgb(50.389099%, 50.389099%, 50.389099%)" offset="0.503906"/><stop stop-opacity="1" stop-color="rgb(50.779724%, 50.779724%, 50.779724%)" offset="0.507812"/><stop stop-opacity="1" stop-color="rgb(51.170349%, 51.170349%, 51.170349%)" offset="0.511719"/><stop stop-opacity="1" stop-color="rgb(51.560974%, 51.560974%, 51.560974%)" offset="0.515625"/><stop stop-opacity="1" stop-color="rgb(51.951599%, 51.951599%, 51.951599%)" offset="0.519531"/><stop stop-opacity="1" stop-color="rgb(52.342224%, 52.342224%, 52.342224%)" offset="0.523438"/><stop stop-opacity="1" stop-color="rgb(52.732849%, 52.732849%, 52.732849%)" offset="0.527344"/><stop stop-opacity="1" stop-color="rgb(53.123474%, 53.123474%, 53.123474%)" offset="0.53125"/><stop stop-opacity="1" stop-color="rgb(53.514099%, 53.514099%, 53.514099%)" offset="0.535156"/><stop stop-opacity="1" stop-color="rgb(53.904724%, 53.904724%, 53.904724%)" offset="0.539062"/><stop stop-opacity="1" stop-color="rgb(54.295349%, 54.295349%, 54.295349%)" offset="0.542969"/><stop stop-opacity="1" stop-color="rgb(54.685974%, 54.685974%, 54.685974%)" offset="0.546875"/><stop stop-opacity="1" stop-color="rgb(55.076599%, 55.076599%, 55.076599%)" offset="0.550781"/><stop stop-opacity="1" stop-color="rgb(55.467224%, 55.467224%, 55.467224%)" offset="0.554688"/><stop stop-opacity="1" stop-color="rgb(55.857849%, 55.857849%, 55.857849%)" offset="0.558594"/><stop stop-opacity="1" stop-color="rgb(56.248474%, 56.248474%, 56.248474%)" offset="0.5625"/><stop stop-opacity="1" stop-color="rgb(56.639099%, 56.639099%, 56.639099%)" offset="0.566406"/><stop stop-opacity="1" stop-color="rgb(57.029724%, 57.029724%, 57.029724%)" offset="0.570312"/><stop stop-opacity="1" stop-color="rgb(57.420349%, 57.420349%, 57.420349%)" offset="0.574219"/><stop stop-opacity="1" stop-color="rgb(57.810974%, 57.810974%, 57.810974%)" offset="0.578125"/><stop stop-opacity="1" stop-color="rgb(58.201599%, 58.201599%, 58.201599%)" offset="0.582031"/><stop stop-opacity="1" stop-color="rgb(58.592224%, 58.592224%, 58.592224%)" offset="0.585938"/><stop stop-opacity="1" stop-color="rgb(58.982849%, 58.982849%, 58.982849%)" offset="0.589844"/><stop stop-opacity="1" stop-color="rgb(59.373474%, 59.373474%, 59.373474%)" offset="0.59375"/><stop stop-opacity="1" stop-color="rgb(59.764099%, 59.764099%, 59.764099%)" offset="0.597656"/><stop stop-opacity="1" stop-color="rgb(60.154724%, 60.154724%, 60.154724%)" offset="0.601562"/><stop stop-opacity="1" stop-color="rgb(60.545349%, 60.545349%, 60.545349%)" offset="0.605469"/><stop stop-opacity="1" stop-color="rgb(60.935974%, 60.935974%, 60.935974%)" offset="0.609375"/><stop stop-opacity="1" stop-color="rgb(61.326599%, 61.326599%, 61.326599%)" offset="0.613281"/><stop stop-opacity="1" stop-color="rgb(61.717224%, 61.717224%, 61.717224%)" offset="0.617188"/><stop stop-opacity="1" stop-color="rgb(62.107849%, 62.107849%, 62.107849%)" offset="0.621094"/><stop stop-opacity="1" stop-color="rgb(62.498474%, 62.498474%, 62.498474%)" offset="0.625"/><stop stop-opacity="1" stop-color="rgb(62.889099%, 62.889099%, 62.889099%)" offset="0.628906"/><stop stop-opacity="1" stop-color="rgb(63.279724%, 63.279724%, 63.279724%)" offset="0.632812"/><stop stop-opacity="1" stop-color="rgb(63.670349%, 63.670349%, 63.670349%)" offset="0.636719"/><stop stop-opacity="1" stop-color="rgb(64.060974%, 64.060974%, 64.060974%)" offset="0.640625"/><stop stop-opacity="1" stop-color="rgb(64.451599%, 64.451599%, 64.451599%)" offset="0.644531"/><stop stop-opacity="1" stop-color="rgb(64.842224%, 64.842224%, 64.842224%)" offset="0.648438"/><stop stop-opacity="1" stop-color="rgb(65.232849%, 65.232849%, 65.232849%)" offset="0.652344"/><stop stop-opacity="1" stop-color="rgb(65.623474%, 65.623474%, 65.623474%)" offset="0.65625"/><stop stop-opacity="1" stop-color="rgb(66.014099%, 66.014099%, 66.014099%)" offset="0.660156"/><stop stop-opacity="1" stop-color="rgb(66.404724%, 66.404724%, 66.404724%)" offset="0.664062"/><stop stop-opacity="1" stop-color="rgb(66.795349%, 66.795349%, 66.795349%)" offset="0.667969"/><stop stop-opacity="1" stop-color="rgb(67.185974%, 67.185974%, 67.185974%)" offset="0.671875"/><stop stop-opacity="1" stop-color="rgb(67.576599%, 67.576599%, 67.576599%)" offset="0.675781"/><stop stop-opacity="1" stop-color="rgb(67.967224%, 67.967224%, 67.967224%)" offset="0.679688"/><stop stop-opacity="1" stop-color="rgb(68.357849%, 68.357849%, 68.357849%)" offset="0.683594"/><stop stop-opacity="1" stop-color="rgb(68.748474%, 68.748474%, 68.748474%)" offset="0.6875"/><stop stop-opacity="1" stop-color="rgb(69.139099%, 69.139099%, 69.139099%)" offset="0.691406"/><stop stop-opacity="1" stop-color="rgb(69.529724%, 69.529724%, 69.529724%)" offset="0.695312"/><stop stop-opacity="1" stop-color="rgb(69.920349%, 69.920349%, 69.920349%)" offset="0.699219"/><stop stop-opacity="1" stop-color="rgb(70.310974%, 70.310974%, 70.310974%)" offset="0.703125"/><stop stop-opacity="1" stop-color="rgb(70.701599%, 70.701599%, 70.701599%)" offset="0.707031"/><stop stop-opacity="1" stop-color="rgb(71.092224%, 71.092224%, 71.092224%)" offset="0.710938"/><stop stop-opacity="1" stop-color="rgb(71.482849%, 71.482849%, 71.482849%)" offset="0.714844"/><stop stop-opacity="1" stop-color="rgb(71.873474%, 71.873474%, 71.873474%)" offset="0.71875"/><stop stop-opacity="1" stop-color="rgb(72.264099%, 72.264099%, 72.264099%)" offset="0.722656"/><stop stop-opacity="1" stop-color="rgb(72.654724%, 72.654724%, 72.654724%)" offset="0.726562"/><stop stop-opacity="1" stop-color="rgb(73.045349%, 73.045349%, 73.045349%)" offset="0.730469"/><stop stop-opacity="1" stop-color="rgb(73.435974%, 73.435974%, 73.435974%)" offset="0.734375"/><stop stop-opacity="1" stop-color="rgb(73.826599%, 73.826599%, 73.826599%)" offset="0.738281"/><stop stop-opacity="1" stop-color="rgb(74.217224%, 74.217224%, 74.217224%)" offset="0.742188"/><stop stop-opacity="1" stop-color="rgb(74.607849%, 74.607849%, 74.607849%)" offset="0.746094"/><stop stop-opacity="1" stop-color="rgb(74.998474%, 74.998474%, 74.998474%)" offset="0.75"/><stop stop-opacity="1" stop-color="rgb(75.389099%, 75.389099%, 75.389099%)" offset="0.753906"/><stop stop-opacity="1" stop-color="rgb(75.779724%, 75.779724%, 75.779724%)" offset="0.757812"/><stop stop-opacity="1" stop-color="rgb(76.170349%, 76.170349%, 76.170349%)" offset="0.761719"/><stop stop-opacity="1" stop-color="rgb(76.560974%, 76.560974%, 76.560974%)" offset="0.765625"/><stop stop-opacity="1" stop-color="rgb(76.951599%, 76.951599%, 76.951599%)" offset="0.769531"/><stop stop-opacity="1" stop-color="rgb(77.342224%, 77.342224%, 77.342224%)" offset="0.773438"/><stop stop-opacity="1" stop-color="rgb(77.732849%, 77.732849%, 77.732849%)" offset="0.777344"/><stop stop-opacity="1" stop-color="rgb(78.123474%, 78.123474%, 78.123474%)" offset="0.78125"/><stop stop-opacity="1" stop-color="rgb(78.514099%, 78.514099%, 78.514099%)" offset="0.785156"/><stop stop-opacity="1" stop-color="rgb(78.904724%, 78.904724%, 78.904724%)" offset="0.789062"/><stop stop-opacity="1" stop-color="rgb(79.295349%, 79.295349%, 79.295349%)" offset="0.792969"/><stop stop-opacity="1" stop-color="rgb(79.685974%, 79.685974%, 79.685974%)" offset="0.796875"/><stop stop-opacity="1" stop-color="rgb(80.076599%, 80.076599%, 80.076599%)" offset="0.800781"/><stop stop-opacity="1" stop-color="rgb(80.467224%, 80.467224%, 80.467224%)" offset="0.804688"/><stop stop-opacity="1" stop-color="rgb(80.857849%, 80.857849%, 80.857849%)" offset="0.808594"/><stop stop-opacity="1" stop-color="rgb(81.248474%, 81.248474%, 81.248474%)" offset="0.8125"/><stop stop-opacity="1" stop-color="rgb(81.639099%, 81.639099%, 81.639099%)" offset="0.816406"/><stop stop-opacity="1" stop-color="rgb(82.029724%, 82.029724%, 82.029724%)" offset="0.820312"/><stop stop-opacity="1" stop-color="rgb(82.420349%, 82.420349%, 82.420349%)" offset="0.824219"/><stop stop-opacity="1" stop-color="rgb(82.810974%, 82.810974%, 82.810974%)" offset="0.828125"/><stop stop-opacity="1" stop-color="rgb(83.201599%, 83.201599%, 83.201599%)" offset="0.832031"/><stop stop-opacity="1" stop-color="rgb(83.592224%, 83.592224%, 83.592224%)" offset="0.835938"/><stop stop-opacity="1" stop-color="rgb(83.982849%, 83.982849%, 83.982849%)" offset="0.839844"/><stop stop-opacity="1" stop-color="rgb(84.373474%, 84.373474%, 84.373474%)" offset="0.84375"/><stop stop-opacity="1" stop-color="rgb(84.764099%, 84.764099%, 84.764099%)" offset="0.847656"/><stop stop-opacity="1" stop-color="rgb(85.154724%, 85.154724%, 85.154724%)" offset="0.851562"/><stop stop-opacity="1" stop-color="rgb(85.545349%, 85.545349%, 85.545349%)" offset="0.855469"/><stop stop-opacity="1" stop-color="rgb(85.935974%, 85.935974%, 85.935974%)" offset="0.859375"/><stop stop-opacity="1" stop-color="rgb(86.326599%, 86.326599%, 86.326599%)" offset="0.863281"/><stop stop-opacity="1" stop-color="rgb(86.717224%, 86.717224%, 86.717224%)" offset="0.867188"/><stop stop-opacity="1" stop-color="rgb(87.107849%, 87.107849%, 87.107849%)" offset="0.871094"/><stop stop-opacity="1" stop-color="rgb(87.498474%, 87.498474%, 87.498474%)" offset="0.875"/><stop stop-opacity="1" stop-color="rgb(87.889099%, 87.889099%, 87.889099%)" offset="0.878906"/><stop stop-opacity="1" stop-color="rgb(88.279724%, 88.279724%, 88.279724%)" offset="0.882812"/><stop stop-opacity="1" stop-color="rgb(88.670349%, 88.670349%, 88.670349%)" offset="0.886719"/><stop stop-opacity="1" stop-color="rgb(89.060974%, 89.060974%, 89.060974%)" offset="0.890625"/><stop stop-opacity="1" stop-color="rgb(89.451599%, 89.451599%, 89.451599%)" offset="0.894531"/><stop stop-opacity="1" stop-color="rgb(89.842224%, 89.842224%, 89.842224%)" offset="0.898438"/><stop stop-opacity="1" stop-color="rgb(90.232849%, 90.232849%, 90.232849%)" offset="0.902344"/><stop stop-opacity="1" stop-color="rgb(90.623474%, 90.623474%, 90.623474%)" offset="0.90625"/><stop stop-opacity="1" stop-color="rgb(91.014099%, 91.014099%, 91.014099%)" offset="0.910156"/><stop stop-opacity="1" stop-color="rgb(91.404724%, 91.404724%, 91.404724%)" offset="0.914062"/><stop stop-opacity="1" stop-color="rgb(91.795349%, 91.795349%, 91.795349%)" offset="0.917969"/><stop stop-opacity="1" stop-color="rgb(92.185974%, 92.185974%, 92.185974%)" offset="0.921875"/><stop stop-opacity="1" stop-color="rgb(92.576599%, 92.576599%, 92.576599%)" offset="0.925781"/><stop stop-opacity="1" stop-color="rgb(92.967224%, 92.967224%, 92.967224%)" offset="0.929688"/><stop stop-opacity="1" stop-color="rgb(93.357849%, 93.357849%, 93.357849%)" offset="0.933594"/><stop stop-opacity="1" stop-color="rgb(93.748474%, 93.748474%, 93.748474%)" offset="0.9375"/><stop stop-opacity="1" stop-color="rgb(94.139099%, 94.139099%, 94.139099%)" offset="0.941406"/><stop stop-opacity="1" stop-color="rgb(94.529724%, 94.529724%, 94.529724%)" offset="0.945312"/><stop stop-opacity="1" stop-color="rgb(94.920349%, 94.920349%, 94.920349%)" offset="0.949219"/><stop stop-opacity="1" stop-color="rgb(95.310974%, 95.310974%, 95.310974%)" offset="0.953125"/><stop stop-opacity="1" stop-color="rgb(95.701599%, 95.701599%, 95.701599%)" offset="0.957031"/><stop stop-opacity="1" stop-color="rgb(96.092224%, 96.092224%, 96.092224%)" offset="0.960938"/><stop stop-opacity="1" stop-color="rgb(96.482849%, 96.482849%, 96.482849%)" offset="0.964844"/><stop stop-opacity="1" stop-color="rgb(96.873474%, 96.873474%, 96.873474%)" offset="0.96875"/><stop stop-opacity="1" stop-color="rgb(97.264099%, 97.264099%, 97.264099%)" offset="0.972656"/><stop stop-opacity="1" stop-color="rgb(97.654724%, 97.654724%, 97.654724%)" offset="0.976562"/><stop stop-opacity="1" stop-color="rgb(98.045349%, 98.045349%, 98.045349%)" offset="0.980469"/><stop stop-opacity="1" stop-color="rgb(98.435974%, 98.435974%, 98.435974%)" offset="0.984375"/><stop stop-opacity="1" stop-color="rgb(98.826599%, 98.826599%, 98.826599%)" offset="0.988281"/><stop stop-opacity="1" stop-color="rgb(99.217224%, 99.217224%, 99.217224%)" offset="0.992188"/><stop stop-opacity="1" stop-color="rgb(99.607849%, 99.607849%, 99.607849%)" offset="0.996094"/><stop stop-opacity="1" stop-color="rgb(99.998474%, 99.998474%, 99.998474%)" offset="1"/></linearGradient><clipPath id="6622bc9933"><rect x="0" width="155" y="0" height="154"/></clipPath><mask id="d7a13a431b"><g filter="url(#b3e5905cc0)"><rect x="-37.5" width="450" fill="#000000" y="-37.499999" height="449.999989" fill-opacity="0.98"/></g></mask><clipPath id="f9a585e712"><path d="M 1 0.902344 L 118 0.902344 L 118 118.652344 L 1 118.652344 Z M 1 0.902344 " clip-rule="nonzero"/></clipPath><clipPath id="b5d2bdfca5"><rect x="0" width="118" y="0" height="120"/></clipPath><clipPath id="3c7cb1ecec"><path d="M 161 117 L 169.699219 117 L 169.699219 123 L 161 123 Z M 161 117 " clip-rule="nonzero"/></clipPath><clipPath id="8a5e9c18ad"><path d="M 131.449219 115 L 134 115 L 134 118 L 131.449219 118 Z M 131.449219 115 " clip-rule="nonzero"/></clipPath><clipPath id="0f0e8c29f3"><path d="M 131.449219 121 L 134 121 L 134 124 L 131.449219 124 Z M 131.449219 121 " clip-rule="nonzero"/></clipPath><clipPath id="4620b9cbb4"><path d="M 145 106.921875 L 148 106.921875 L 148 109 L 145 109 Z M 145 106.921875 " clip-rule="nonzero"/></clipPath><clipPath id="36a7cb7213"><path d="M 154 106.921875 L 156 106.921875 L 156 109 L 154 109 Z M 154 106.921875 " clip-rule="nonzero"/></clipPath><clipPath id="e7d2c66d42"><path d="M 154 143 L 156 143 L 156 144.421875 L 154 144.421875 Z M 154 143 " clip-rule="nonzero"/></clipPath><clipPath id="46a1c4c015"><path d="M 167 125 L 169.699219 125 L 169.699219 128 L 167 128 Z M 167 125 " clip-rule="nonzero"/></clipPath><clipPath id="ee2ee6903e"><path d="M 0.078125 6 L 10 6 L 10 18 L 0.078125 18 Z M 0.078125 6 " clip-rule="nonzero"/></clipPath><clipPath id="9fe11fb498"><rect x="0" width="69" y="0" height="23"/></clipPath><clipPath id="cf4d816246"><path d="M 196 115 L 224 115 L 224 141.992188 L 196 141.992188 Z M 196 115 " clip-rule="nonzero"/></clipPath><clipPath id="4071c6bd07"><path d="M 206 108.242188 L 213 108.242188 L 213 115 L 206 115 Z M 206 108.242188 " clip-rule="nonzero"/></clipPath><clipPath id="fcaab8be98"><path d="M 224 122 L 227.25 122 L 227.25 129 L 224 129 Z M 224 122 " clip-rule="nonzero"/></clipPath><clipPath id="a441e814ff"><path d="M 183 157.464844 L 247.207031 157.464844 L 247.207031 161.214844 L 183 161.214844 Z M 183 157.464844 " clip-rule="nonzero"/></clipPath></defs><rect x="-37.5" width="450" fill="#ffffff" y="-37.499999" height="449.999989" fill-opacity="1"/><rect x="-37.5" width="450" fill="#ffffff" y="-37.499999" height="449.999989" fill-opacity="1"/><g clip-path="url(#7ee667ef80)"><g clip-path="url(#1fbf1ba67c)"><g transform="matrix(1, 0, 0, 1, 110, 79)"><g clip-path="url(#6622bc9933)"><g clip-path="url(#610e435a21)"><g clip-path="url(#f254b9ec67)"><path fill="url(#f550d717f4)" d="M 0.984375 0.320312 L 0.984375 153.351562 L 154.015625 153.351562 L 154.015625 0.320312 Z M 0.984375 0.320312 " fill-rule="nonzero"/></g></g></g></g></g></g><g mask="url(#d7a13a431b)"><g transform="matrix(1, 0, 0, 1, 128, 96)"><g clip-path="url(#b5d2bdfca5)"><g clip-path="url(#f9a585e712)"><path fill="#ffffff" d="M 111.300781 84.449219 C 107.597656 82.097656 102.464844 79.910156 96.851562 78.285156 C 91.289062 76.675781 85.820312 75.789062 81.445312 75.789062 C 75.527344 75.789062 72.046875 77.414062 71.082031 80.664062 C 71.082031 80.671875 70.707031 81.992188 70.230469 83.578125 C 70.207031 83.664062 70.183594 83.761719 70.164062 83.863281 L 69.121094 87.46875 C 67.929688 87.128906 66.851562 86.484375 65.980469 85.570312 L 34.613281 52.972656 C 33.359375 51.667969 32.691406 49.925781 32.695312 48.09375 C 32.910156 48.03125 33.132812 47.964844 33.359375 47.898438 C 34.523438 48.023438 35.585938 47.8125 36.355469 47.359375 L 40.933594 44.832031 C 42.164062 44.148438 43.183594 43.582031 43.289062 43.519531 C 43.40625 43.472656 43.519531 43.417969 43.628906 43.355469 C 49.695312 39.976562 45.566406 27.4375 40.191406 17.730469 C 38.605469 14.863281 30.308594 0.5625 22.875 0.5625 C 21.941406 0.5625 21.070312 0.777344 20.285156 1.207031 C 20.242188 1.230469 20.203125 1.253906 20.160156 1.277344 L 17.640625 2.671875 C 17.550781 2.71875 17.453125 2.777344 17.355469 2.839844 C 13.625 4.890625 10.917969 7.101562 8.042969 10.441406 C 6.171875 12.617188 4.636719 14.972656 3.480469 17.441406 C 1.128906 22.460938 0.445312 27.867188 1.542969 32.695312 C 3.066406 47.230469 14.585938 66.621094 33.191406 85.960938 C 50.671875 104.140625 71.085938 116.722656 86.464844 118.800781 C 87.96875 119.003906 89.359375 119.101562 90.714844 119.101562 C 95.390625 119.101562 99.539062 117.882812 103.398438 115.359375 C 109.421875 111.433594 113.429688 105.886719 116.375 97.410156 C 116.417969 97.292969 116.464844 97.136719 116.503906 96.976562 L 116.9375 95.488281 C 117.128906 94.839844 117.265625 94.363281 117.269531 94.332031 C 117.308594 94.234375 117.34375 94.132812 117.375 94.03125 C 118.304688 90.820312 116.261719 87.59375 111.300781 84.449219 Z M 111.300781 84.449219 " fill-opacity="1" fill-rule="nonzero"/></g></g></g></g><path fill="#222222" d="M 136.75 111.609375 L 136.390625 111.25 L 137.558594 110.085938 L 139.722656 110.085938 L 141.15625 108.65625 L 141.511719 109.015625 L 139.933594 110.597656 L 137.765625 110.597656 Z M 136.75 111.609375 " fill-opacity="1" fill-rule="nonzero"/><path fill="#222222" d="M 135.960938 125.078125 L 134.363281 123.484375 L 134.363281 113.882812 L 134.871094 113.882812 L 134.871094 123.269531 L 136.320312 124.71875 Z M 135.960938 125.078125 " fill-opacity="1" fill-rule="nonzero"/><path fill="#222222" d="M 132.046875 116.5625 L 132.554688 116.5625 L 132.554688 122.332031 L 132.046875 122.332031 Z M 132.046875 116.5625 " fill-opacity="1" fill-rule="nonzero"/><path fill="#222222" d="M 138.824219 123.96875 L 138.316406 123.96875 L 138.316406 122.210938 L 135.964844 119.859375 L 135.964844 113.628906 L 139.703125 113.628906 L 143.984375 109.347656 L 144.339844 109.710938 L 139.914062 114.136719 L 136.476562 114.136719 L 136.476562 119.648438 L 138.824219 122 Z M 138.824219 123.96875 " fill-opacity="1" fill-rule="nonzero"/><path fill="#222222" d="M 142.480469 123.785156 L 141.972656 123.785156 L 141.972656 114.390625 L 146.582031 109.78125 L 146.582031 107.886719 L 147.089844 107.886719 L 147.089844 109.992188 L 142.480469 114.601562 Z M 142.480469 123.785156 " fill-opacity="1" fill-rule="nonzero"/><path fill="#222222" d="M 139.269531 116.246094 L 139.777344 116.246094 L 139.777344 118.972656 L 139.269531 118.972656 Z M 139.269531 116.246094 " fill-opacity="1" fill-rule="nonzero"/><path fill="#222222" d="M 145.273438 123.785156 L 144.765625 123.785156 L 144.765625 116.140625 L 148.808594 112.097656 L 148.808594 108.207031 L 149.316406 108.207031 L 149.316406 112.308594 L 145.273438 116.351562 Z M 145.273438 123.785156 " fill-opacity="1" fill-rule="nonzero"/><path fill="#222222" d="M 146.429688 118.0625 L 148.769531 115.726562 L 149.128906 116.085938 L 146.789062 118.421875 Z M 146.429688 118.0625 " fill-opacity="1" fill-rule="nonzero"/><path fill="#222222" d="M 147.015625 121.96875 L 146.65625 121.605469 L 150.804688 117.457031 L 150.804688 110.132812 L 151.3125 110.132812 L 151.3125 117.667969 Z M 147.015625 121.96875 " fill-opacity="1" fill-rule="nonzero"/><path fill="#222222" d="M 148.125 126.175781 L 140.054688 126.175781 L 140.054688 125.667969 L 147.910156 125.667969 L 150.105469 123.472656 L 150.46875 123.828125 Z M 148.125 126.175781 " fill-opacity="1" fill-rule="nonzero"/><path fill="#222222" d="M 150.390625 127.992188 L 141.335938 127.992188 L 141.335938 127.484375 L 150.183594 127.484375 L 152.53125 125.132812 L 152.53125 119.242188 L 153.039062 119.242188 L 153.039062 125.34375 Z M 150.390625 127.992188 " fill-opacity="1" fill-rule="nonzero"/><path fill="#222222" d="M 149.054688 132.300781 L 145.453125 132.300781 L 143.152344 130.003906 L 143.511719 129.644531 L 145.660156 131.792969 L 149.054688 131.792969 Z M 149.054688 132.300781 " fill-opacity="1" fill-rule="nonzero"/><path fill="#222222" d="M 153.207031 139.644531 L 152.699219 139.644531 L 152.699219 132.15625 L 150.304688 129.761719 L 146.1875 129.761719 L 146.1875 129.253906 L 150.515625 129.253906 L 153.207031 131.945312 Z M 153.207031 139.644531 " fill-opacity="1" fill-rule="nonzero"/><path fill="#222222" d="M 154.480469 130.296875 L 154.121094 129.933594 L 155.484375 128.574219 L 167.238281 128.574219 L 167.238281 129.082031 L 155.695312 129.082031 Z M 154.480469 130.296875 " fill-opacity="1" fill-rule="nonzero"/><path fill="#222222" d="M 153.335938 127.859375 L 152.976562 127.496094 L 155.378906 125.09375 L 155.378906 117.773438 L 152.957031 115.351562 L 152.957031 109.535156 L 154.46875 108.027344 L 154.828125 108.386719 L 153.46875 109.746094 L 153.46875 115.140625 L 155.890625 117.5625 L 155.890625 125.300781 Z M 153.335938 127.859375 " fill-opacity="1" fill-rule="nonzero"/><path fill="#222222" d="M 158.882812 126.683594 L 158.882812 126.175781 L 167.707031 126.210938 L 167.707031 126.71875 Z M 158.882812 126.683594 " fill-opacity="1" fill-rule="nonzero"/><path fill="#222222" d="M 164.132812 124.765625 L 159.8125 124.765625 L 157.140625 122.097656 L 157.140625 117.777344 L 159.015625 115.902344 L 159.015625 109.53125 L 159.523438 109.53125 L 159.523438 116.113281 L 157.652344 117.984375 L 157.652344 121.886719 L 160.023438 124.257812 L 164.132812 124.257812 Z M 164.132812 124.765625 " fill-opacity="1" fill-rule="nonzero"/><path fill="#222222" d="M 157.140625 113.703125 L 156.632812 113.703125 L 156.632812 112.308594 L 155.550781 111.222656 L 155.90625 110.863281 L 157.140625 112.09375 Z M 157.140625 113.703125 " fill-opacity="1" fill-rule="nonzero"/><path fill="#222222" d="M 159.28125 120.648438 L 158.917969 120.289062 L 161.140625 118.070312 L 161.140625 111.566406 L 161.648438 111.566406 L 161.648438 118.28125 Z M 159.28125 120.648438 " fill-opacity="1" fill-rule="nonzero"/><path fill="#222222" d="M 165.621094 120.136719 L 163.433594 117.949219 L 163.433594 113.257812 L 163.941406 113.257812 L 163.941406 117.738281 L 165.980469 119.777344 Z M 165.621094 120.136719 " fill-opacity="1" fill-rule="nonzero"/><g clip-path="url(#3c7cb1ecec)"><path fill="#222222" d="M 169.34375 122.671875 L 161.445312 122.671875 L 161.445312 122.164062 L 168.835938 122.164062 L 168.835938 119.203125 L 167.042969 117.410156 L 167.402344 117.054688 L 169.34375 118.996094 Z M 169.34375 122.671875 " fill-opacity="1" fill-rule="nonzero"/></g><path fill="#222222" d="M 155.265625 143.921875 L 154.757812 143.921875 L 154.757812 132.492188 L 156.539062 130.707031 L 165.683594 130.707031 L 165.683594 131.214844 L 156.753906 131.214844 L 155.265625 132.703125 Z M 155.265625 143.921875 " fill-opacity="1" fill-rule="nonzero"/><path fill="#222222" d="M 157.03125 138.679688 L 156.671875 138.320312 L 158.367188 136.625 L 158.367188 132.34375 L 161.617188 132.34375 L 161.617188 132.851562 L 158.875 132.851562 L 158.875 136.835938 Z M 157.03125 138.679688 " fill-opacity="1" fill-rule="nonzero"/><path fill="#222222" d="M 137.425781 111.671875 C 137.425781 111.90625 137.34375 112.109375 137.175781 112.277344 C 137.007812 112.441406 136.808594 112.527344 136.570312 112.527344 C 136.335938 112.527344 136.132812 112.441406 135.96875 112.277344 C 135.800781 112.109375 135.71875 111.90625 135.71875 111.671875 C 135.71875 111.4375 135.800781 111.234375 135.96875 111.066406 C 136.132812 110.902344 136.335938 110.816406 136.570312 110.816406 C 136.808594 110.816406 137.007812 110.902344 137.175781 111.066406 C 137.34375 111.234375 137.425781 111.4375 137.425781 111.671875 Z M 137.425781 111.671875 " fill-opacity="1" fill-rule="nonzero"/><path fill="#222222" d="M 142.578125 108.628906 C 142.578125 108.867188 142.492188 109.066406 142.328125 109.234375 C 142.160156 109.398438 141.957031 109.484375 141.722656 109.484375 C 141.488281 109.484375 141.285156 109.398438 141.117188 109.234375 C 140.953125 109.066406 140.867188 108.867188 140.867188 108.628906 C 140.867188 108.394531 140.953125 108.191406 141.117188 108.023438 C 141.285156 107.859375 141.488281 107.773438 141.722656 107.773438 C 141.957031 107.773438 142.160156 107.859375 142.328125 108.023438 C 142.492188 108.191406 142.578125 108.394531 142.578125 108.628906 Z M 142.578125 108.628906 " fill-opacity="1" fill-rule="nonzero"/><path fill="#222222" d="M 145.171875 109.277344 C 145.171875 109.515625 145.089844 109.714844 144.921875 109.882812 C 144.753906 110.050781 144.554688 110.132812 144.316406 110.132812 C 144.082031 110.132812 143.878906 110.050781 143.714844 109.882812 C 143.546875 109.714844 143.464844 109.515625 143.464844 109.277344 C 143.464844 109.042969 143.546875 108.839844 143.714844 108.675781 C 143.878906 108.507812 144.082031 108.425781 144.316406 108.425781 C 144.554688 108.425781 144.753906 108.507812 144.921875 108.675781 C 145.089844 108.839844 145.171875 109.042969 145.171875 109.277344 Z M 145.171875 109.277344 " fill-opacity="1" fill-rule="nonzero"/><path fill="#222222" d="M 140.378906 115.90625 C 140.378906 116.140625 140.296875 116.34375 140.128906 116.507812 C 139.960938 116.675781 139.761719 116.757812 139.523438 116.757812 C 139.289062 116.757812 139.085938 116.675781 138.921875 116.507812 C 138.753906 116.34375 138.671875 116.140625 138.671875 115.90625 C 138.671875 115.667969 138.753906 115.46875 138.921875 115.300781 C 139.085938 115.132812 139.289062 115.050781 139.523438 115.050781 C 139.761719 115.050781 139.960938 115.132812 140.128906 115.300781 C 140.296875 115.46875 140.378906 115.667969 140.378906 115.90625 Z M 140.378906 115.90625 " fill-opacity="1" fill-rule="nonzero"/><path fill="#222222" d="M 140.378906 119.582031 C 140.378906 119.820312 140.296875 120.019531 140.128906 120.1875 C 139.960938 120.355469 139.761719 120.4375 139.523438 120.4375 C 139.289062 120.4375 139.085938 120.355469 138.921875 120.1875 C 138.753906 120.019531 138.671875 119.820312 138.671875 119.582031 C 138.671875 119.347656 138.753906 119.144531 138.921875 118.980469 C 139.085938 118.8125 139.289062 118.730469 139.523438 118.730469 C 139.761719 118.730469 139.960938 118.8125 140.128906 118.980469 C 140.296875 119.144531 140.378906 119.347656 140.378906 119.582031 Z M 140.378906 119.582031 " fill-opacity="1" fill-rule="nonzero"/><path fill="#222222" d="M 139.523438 124.046875 C 139.523438 124.28125 139.441406 124.484375 139.273438 124.648438 C 139.109375 124.816406 138.90625 124.898438 138.671875 124.898438 C 138.433594 124.898438 138.234375 124.816406 138.066406 124.648438 C 137.898438 124.484375 137.816406 124.28125 137.816406 124.046875 C 137.816406 123.808594 137.898438 123.609375 138.066406 123.441406 C 138.234375 123.273438 138.433594 123.191406 138.671875 123.191406 C 138.90625 123.191406 139.109375 123.273438 139.273438 123.441406 C 139.441406 123.609375 139.523438 123.808594 139.523438 124.046875 Z M 139.523438 124.046875 " fill-opacity="1" fill-rule="nonzero"/><path fill="#222222" d="M 135.472656 113.519531 C 135.472656 113.753906 135.390625 113.957031 135.222656 114.125 C 135.054688 114.289062 134.855469 114.375 134.617188 114.375 C 134.382812 114.375 134.179688 114.289062 134.015625 114.125 C 133.847656 113.957031 133.765625 113.753906 133.765625 113.519531 C 133.765625 113.285156 133.847656 113.082031 134.015625 112.914062 C 134.179688 112.75 134.382812 112.664062 134.617188 112.664062 C 134.855469 112.664062 135.054688 112.75 135.222656 112.914062 C 135.390625 113.082031 135.472656 113.285156 135.472656 113.519531 Z M 135.472656 113.519531 " fill-opacity="1" fill-rule="nonzero"/><path fill="#222222" d="M 137.074219 125.066406 C 137.074219 125.300781 136.988281 125.503906 136.820312 125.671875 C 136.65625 125.835938 136.453125 125.921875 136.21875 125.921875 C 135.980469 125.921875 135.78125 125.835938 135.613281 125.671875 C 135.449219 125.503906 135.363281 125.300781 135.363281 125.066406 C 135.363281 124.832031 135.449219 124.628906 135.613281 124.460938 C 135.78125 124.296875 135.980469 124.210938 136.21875 124.210938 C 136.453125 124.210938 136.65625 124.296875 136.820312 124.460938 C 136.988281 124.628906 137.074219 124.832031 137.074219 125.066406 Z M 137.074219 125.066406 " fill-opacity="1" fill-rule="nonzero"/><g clip-path="url(#8a5e9c18ad)"><path fill="#222222" d="M 133.15625 116.246094 C 133.15625 116.484375 133.074219 116.683594 132.90625 116.851562 C 132.738281 117.015625 132.539062 117.101562 132.300781 117.101562 C 132.066406 117.101562 131.867188 117.015625 131.699219 116.851562 C 131.53125 116.683594 131.449219 116.484375 131.449219 116.246094 C 131.449219 116.011719 131.53125 115.808594 131.699219 115.644531 C 131.867188 115.476562 132.066406 115.390625 132.300781 115.390625 C 132.539062 115.390625 132.738281 115.476562 132.90625 115.644531 C 133.074219 115.808594 133.15625 116.011719 133.15625 116.246094 Z M 133.15625 116.246094 " fill-opacity="1" fill-rule="nonzero"/></g><g clip-path="url(#0f0e8c29f3)"><path fill="#222222" d="M 133.15625 122.640625 C 133.15625 122.875 133.074219 123.078125 132.90625 123.246094 C 132.738281 123.410156 132.539062 123.496094 132.300781 123.496094 C 132.066406 123.496094 131.867188 123.410156 131.699219 123.246094 C 131.53125 123.078125 131.449219 122.875 131.449219 122.640625 C 131.449219 122.40625 131.53125 122.203125 131.699219 122.035156 C 131.867188 121.871094 132.066406 121.785156 132.300781 121.785156 C 132.539062 121.785156 132.738281 121.871094 132.90625 122.035156 C 133.074219 122.203125 133.15625 122.40625 133.15625 122.640625 Z M 133.15625 122.640625 " fill-opacity="1" fill-rule="nonzero"/></g><g clip-path="url(#4620b9cbb4)"><path fill="#222222" d="M 147.691406 107.773438 C 147.691406 108.011719 147.605469 108.210938 147.441406 108.378906 C 147.273438 108.546875 147.070312 108.628906 146.835938 108.628906 C 146.601562 108.628906 146.398438 108.546875 146.230469 108.378906 C 146.066406 108.210938 145.980469 108.011719 145.980469 107.773438 C 145.980469 107.539062 146.066406 107.339844 146.230469 107.171875 C 146.398438 107.003906 146.601562 106.921875 146.835938 106.921875 C 147.070312 106.921875 147.273438 107.003906 147.441406 107.171875 C 147.605469 107.339844 147.691406 107.539062 147.691406 107.773438 Z M 147.691406 107.773438 " fill-opacity="1" fill-rule="nonzero"/></g><path fill="#222222" d="M 143.082031 123.785156 C 143.082031 124.019531 142.996094 124.222656 142.828125 124.386719 C 142.664062 124.554688 142.460938 124.636719 142.226562 124.636719 C 141.988281 124.636719 141.789062 124.554688 141.621094 124.386719 C 141.457031 124.222656 141.371094 124.019531 141.371094 123.785156 C 141.371094 123.546875 141.457031 123.347656 141.621094 123.179688 C 141.789062 123.011719 141.988281 122.929688 142.226562 122.929688 C 142.460938 122.929688 142.664062 123.011719 142.828125 123.179688 C 142.996094 123.347656 143.082031 123.546875 143.082031 123.785156 Z M 143.082031 123.785156 " fill-opacity="1" fill-rule="nonzero"/><path fill="#222222" d="M 145.875 123.785156 C 145.875 124.019531 145.789062 124.222656 145.625 124.386719 C 145.457031 124.554688 145.253906 124.636719 145.019531 124.636719 C 144.785156 124.636719 144.582031 124.554688 144.414062 124.386719 C 144.25 124.222656 144.164062 124.019531 144.164062 123.785156 C 144.164062 123.546875 144.25 123.347656 144.414062 123.179688 C 144.582031 123.011719 144.785156 122.929688 145.019531 122.929688 C 145.253906 122.929688 145.457031 123.011719 145.625 123.179688 C 145.789062 123.347656 145.875 123.546875 145.875 123.785156 Z M 145.875 123.785156 " fill-opacity="1" fill-rule="nonzero"/><path fill="#222222" d="M 149.917969 107.886719 C 149.917969 108.125 149.832031 108.324219 149.667969 108.492188 C 149.5 108.660156 149.296875 108.742188 149.0625 108.742188 C 148.824219 108.742188 148.625 108.660156 148.457031 108.492188 C 148.292969 108.324219 148.207031 108.125 148.207031 107.886719 C 148.207031 107.652344 148.292969 107.449219 148.457031 107.285156 C 148.625 107.117188 148.824219 107.035156 149.0625 107.035156 C 149.296875 107.035156 149.5 107.117188 149.667969 107.285156 C 149.832031 107.449219 149.917969 107.652344 149.917969 107.886719 Z M 149.917969 107.886719 " fill-opacity="1" fill-rule="nonzero"/><path fill="#222222" d="M 150.289062 115.390625 C 150.289062 115.628906 150.203125 115.828125 150.039062 115.996094 C 149.871094 116.164062 149.667969 116.246094 149.433594 116.246094 C 149.199219 116.246094 148.996094 116.164062 148.828125 115.996094 C 148.664062 115.828125 148.578125 115.628906 148.578125 115.390625 C 148.578125 115.15625 148.664062 114.957031 148.828125 114.789062 C 148.996094 114.621094 149.199219 114.539062 149.433594 114.539062 C 149.667969 114.539062 149.871094 114.621094 150.039062 114.789062 C 150.203125 114.957031 150.289062 115.15625 150.289062 115.390625 Z M 150.289062 115.390625 " fill-opacity="1" fill-rule="nonzero"/><path fill="#222222" d="M 147.464844 118.246094 C 147.464844 118.480469 147.378906 118.683594 147.214844 118.847656 C 147.046875 119.015625 146.847656 119.097656 146.609375 119.097656 C 146.375 119.097656 146.171875 119.015625 146.007812 118.847656 C 145.839844 118.683594 145.753906 118.480469 145.753906 118.246094 C 145.753906 118.007812 145.839844 117.808594 146.007812 117.640625 C 146.171875 117.472656 146.375 117.390625 146.609375 117.390625 C 146.847656 117.390625 147.046875 117.472656 147.214844 117.640625 C 147.378906 117.808594 147.464844 118.007812 147.464844 118.246094 Z M 147.464844 118.246094 " fill-opacity="1" fill-rule="nonzero"/><path fill="#222222" d="M 151.277344 123.488281 C 151.277344 123.726562 151.191406 123.925781 151.027344 124.09375 C 150.859375 124.261719 150.65625 124.34375 150.421875 124.34375 C 150.1875 124.34375 149.984375 124.261719 149.816406 124.09375 C 149.652344 123.925781 149.566406 123.726562 149.566406 123.488281 C 149.566406 123.253906 149.652344 123.050781 149.816406 122.886719 C 149.984375 122.71875 150.1875 122.636719 150.421875 122.636719 C 150.65625 122.636719 150.859375 122.71875 151.027344 122.886719 C 151.191406 123.050781 151.277344 123.253906 151.277344 123.488281 Z M 151.277344 123.488281 " fill-opacity="1" fill-rule="nonzero"/><path fill="#222222" d="M 141.042969 125.921875 C 141.042969 126.15625 140.960938 126.359375 140.792969 126.523438 C 140.628906 126.691406 140.425781 126.773438 140.191406 126.773438 C 139.953125 126.773438 139.753906 126.691406 139.585938 126.523438 C 139.417969 126.359375 139.335938 126.15625 139.335938 125.921875 C 139.335938 125.683594 139.417969 125.484375 139.585938 125.316406 C 139.753906 125.148438 139.953125 125.066406 140.191406 125.066406 C 140.425781 125.066406 140.628906 125.148438 140.792969 125.316406 C 140.960938 125.484375 141.042969 125.683594 141.042969 125.921875 Z M 141.042969 125.921875 " fill-opacity="1" fill-rule="nonzero"/><path fill="#222222" d="M 141.898438 127.796875 C 141.898438 128.03125 141.816406 128.234375 141.648438 128.398438 C 141.480469 128.566406 141.28125 128.652344 141.042969 128.652344 C 140.808594 128.652344 140.609375 128.566406 140.441406 128.398438 C 140.273438 128.234375 140.191406 128.03125 140.191406 127.796875 C 140.191406 127.558594 140.273438 127.359375 140.441406 127.191406 C 140.609375 127.027344 140.808594 126.941406 141.042969 126.941406 C 141.28125 126.941406 141.480469 127.027344 141.648438 127.191406 C 141.816406 127.359375 141.898438 127.558594 141.898438 127.796875 Z M 141.898438 127.796875 " fill-opacity="1" fill-rule="nonzero"/><path fill="#222222" d="M 153.640625 118.972656 C 153.640625 119.207031 153.554688 119.410156 153.390625 119.574219 C 153.222656 119.742188 153.019531 119.824219 152.785156 119.824219 C 152.550781 119.824219 152.347656 119.742188 152.179688 119.574219 C 152.015625 119.410156 151.929688 119.207031 151.929688 118.972656 C 151.929688 118.734375 152.015625 118.535156 152.179688 118.367188 C 152.347656 118.199219 152.550781 118.117188 152.785156 118.117188 C 153.019531 118.117188 153.222656 118.199219 153.390625 118.367188 C 153.554688 118.535156 153.640625 118.734375 153.640625 118.972656 Z M 153.640625 118.972656 " fill-opacity="1" fill-rule="nonzero"/><path fill="#222222" d="M 147.691406 121.785156 C 147.691406 122.023438 147.605469 122.222656 147.441406 122.390625 C 147.273438 122.558594 147.070312 122.640625 146.835938 122.640625 C 146.601562 122.640625 146.398438 122.558594 146.230469 122.390625 C 146.066406 122.222656 145.980469 122.023438 145.980469 121.785156 C 145.980469 121.550781 146.066406 121.347656 146.230469 121.183594 C 146.398438 121.015625 146.601562 120.933594 146.835938 120.933594 C 147.070312 120.933594 147.273438 121.015625 147.441406 121.183594 C 147.605469 121.347656 147.691406 121.550781 147.691406 121.785156 Z M 147.691406 121.785156 " fill-opacity="1" fill-rule="nonzero"/><path fill="#222222" d="M 151.914062 110.335938 C 151.914062 110.570312 151.832031 110.773438 151.664062 110.941406 C 151.496094 111.105469 151.296875 111.191406 151.058594 111.191406 C 150.824219 111.191406 150.621094 111.105469 150.457031 110.941406 C 150.289062 110.773438 150.207031 110.570312 150.207031 110.335938 C 150.207031 110.097656 150.289062 109.898438 150.457031 109.730469 C 150.621094 109.566406 150.824219 109.480469 151.058594 109.480469 C 151.296875 109.480469 151.496094 109.566406 151.664062 109.730469 C 151.832031 109.898438 151.914062 110.097656 151.914062 110.335938 Z M 151.914062 110.335938 " fill-opacity="1" fill-rule="nonzero"/><g clip-path="url(#36a7cb7213)"><path fill="#222222" d="M 155.730469 107.773438 C 155.730469 108.011719 155.644531 108.210938 155.476562 108.378906 C 155.3125 108.546875 155.109375 108.628906 154.875 108.628906 C 154.636719 108.628906 154.4375 108.546875 154.269531 108.378906 C 154.105469 108.210938 154.019531 108.011719 154.019531 107.773438 C 154.019531 107.539062 154.105469 107.339844 154.269531 107.171875 C 154.4375 107.003906 154.636719 106.921875 154.875 106.921875 C 155.109375 106.921875 155.3125 107.003906 155.476562 107.171875 C 155.644531 107.339844 155.730469 107.539062 155.730469 107.773438 Z M 155.730469 107.773438 " fill-opacity="1" fill-rule="nonzero"/></g><path fill="#222222" d="M 156.308594 110.816406 C 156.308594 111.054688 156.222656 111.253906 156.058594 111.421875 C 155.890625 111.589844 155.6875 111.671875 155.453125 111.671875 C 155.21875 111.671875 155.015625 111.589844 154.847656 111.421875 C 154.683594 111.253906 154.597656 111.054688 154.597656 110.816406 C 154.597656 110.582031 154.683594 110.378906 154.847656 110.214844 C 155.015625 110.046875 155.21875 109.964844 155.453125 109.964844 C 155.6875 109.964844 155.890625 110.046875 156.058594 110.214844 C 156.222656 110.378906 156.308594 110.582031 156.308594 110.816406 Z M 156.308594 110.816406 " fill-opacity="1" fill-rule="nonzero"/><path fill="#222222" d="M 157.742188 114.109375 C 157.742188 114.347656 157.65625 114.546875 157.492188 114.714844 C 157.324219 114.878906 157.121094 114.964844 156.886719 114.964844 C 156.652344 114.964844 156.449219 114.878906 156.28125 114.714844 C 156.117188 114.546875 156.03125 114.347656 156.03125 114.109375 C 156.03125 113.875 156.117188 113.671875 156.28125 113.507812 C 156.449219 113.339844 156.652344 113.253906 156.886719 113.253906 C 157.121094 113.253906 157.324219 113.339844 157.492188 113.507812 C 157.65625 113.671875 157.742188 113.875 157.742188 114.109375 Z M 157.742188 114.109375 " fill-opacity="1" fill-rule="nonzero"/><path fill="#222222" d="M 146.726562 129.589844 C 146.726562 129.824219 146.644531 130.027344 146.476562 130.195312 C 146.3125 130.359375 146.109375 130.445312 145.875 130.445312 C 145.636719 130.445312 145.4375 130.359375 145.269531 130.195312 C 145.101562 130.027344 145.019531 129.824219 145.019531 129.589844 C 145.019531 129.355469 145.101562 129.152344 145.269531 128.984375 C 145.4375 128.820312 145.636719 128.734375 145.875 128.734375 C 146.109375 128.734375 146.3125 128.820312 146.476562 128.984375 C 146.644531 129.152344 146.726562 129.355469 146.726562 129.589844 Z M 146.726562 129.589844 " fill-opacity="1" fill-rule="nonzero"/><path fill="#222222" d="M 150.25 132.046875 C 150.25 132.285156 150.164062 132.484375 149.996094 132.652344 C 149.832031 132.820312 149.628906 132.902344 149.394531 132.902344 C 149.15625 132.902344 148.957031 132.820312 148.789062 132.652344 C 148.621094 132.484375 148.539062 132.285156 148.539062 132.046875 C 148.539062 131.8125 148.621094 131.609375 148.789062 131.445312 C 148.957031 131.277344 149.15625 131.195312 149.394531 131.195312 C 149.628906 131.195312 149.832031 131.277344 149.996094 131.445312 C 150.164062 131.609375 150.25 131.8125 150.25 132.046875 Z M 150.25 132.046875 " fill-opacity="1" fill-rule="nonzero"/><path fill="#222222" d="M 144.050781 129.5625 C 144.050781 129.796875 143.96875 130 143.800781 130.164062 C 143.636719 130.332031 143.433594 130.414062 143.199219 130.414062 C 142.960938 130.414062 142.761719 130.332031 142.59375 130.164062 C 142.425781 130 142.34375 129.796875 142.34375 129.5625 C 142.34375 129.324219 142.425781 129.125 142.59375 128.957031 C 142.761719 128.789062 142.960938 128.707031 143.199219 128.707031 C 143.433594 128.707031 143.636719 128.789062 143.800781 128.957031 C 143.96875 129.125 144.050781 129.324219 144.050781 129.5625 Z M 144.050781 129.5625 " fill-opacity="1" fill-rule="nonzero"/><path fill="#222222" d="M 153.804688 139.644531 C 153.804688 139.878906 153.722656 140.082031 153.554688 140.25 C 153.390625 140.414062 153.1875 140.5 152.953125 140.5 C 152.714844 140.5 152.515625 140.414062 152.347656 140.25 C 152.179688 140.082031 152.097656 139.878906 152.097656 139.644531 C 152.097656 139.410156 152.179688 139.207031 152.347656 139.039062 C 152.515625 138.875 152.714844 138.789062 152.953125 138.789062 C 153.1875 138.789062 153.390625 138.875 153.554688 139.039062 C 153.722656 139.207031 153.804688 139.410156 153.804688 139.644531 Z M 153.804688 139.644531 " fill-opacity="1" fill-rule="nonzero"/><g clip-path="url(#e7d2c66d42)"><path fill="#222222" d="M 155.863281 143.921875 C 155.863281 144.160156 155.78125 144.359375 155.613281 144.527344 C 155.449219 144.695312 155.246094 144.777344 155.011719 144.777344 C 154.773438 144.777344 154.574219 144.695312 154.40625 144.527344 C 154.238281 144.359375 154.15625 144.160156 154.15625 143.921875 C 154.15625 143.6875 154.238281 143.484375 154.40625 143.320312 C 154.574219 143.152344 154.773438 143.070312 155.011719 143.070312 C 155.246094 143.070312 155.449219 143.152344 155.613281 143.320312 C 155.78125 143.484375 155.863281 143.6875 155.863281 143.921875 Z M 155.863281 143.921875 " fill-opacity="1" fill-rule="nonzero"/></g><path fill="#222222" d="M 157.703125 138.652344 C 157.703125 138.886719 157.621094 139.089844 157.453125 139.253906 C 157.285156 139.421875 157.085938 139.507812 156.847656 139.507812 C 156.613281 139.507812 156.410156 139.421875 156.246094 139.253906 C 156.078125 139.089844 155.996094 138.886719 155.996094 138.652344 C 155.996094 138.414062 156.078125 138.214844 156.246094 138.046875 C 156.410156 137.878906 156.613281 137.796875 156.847656 137.796875 C 157.085938 137.796875 157.285156 137.878906 157.453125 138.046875 C 157.621094 138.214844 157.703125 138.414062 157.703125 138.652344 Z M 157.703125 138.652344 " fill-opacity="1" fill-rule="nonzero"/><path fill="#222222" d="M 162.472656 132.597656 C 162.472656 132.832031 162.390625 133.035156 162.222656 133.199219 C 162.054688 133.367188 161.855469 133.449219 161.617188 133.449219 C 161.382812 133.449219 161.179688 133.367188 161.015625 133.199219 C 160.847656 133.035156 160.765625 132.832031 160.765625 132.597656 C 160.765625 132.359375 160.847656 132.160156 161.015625 131.992188 C 161.179688 131.824219 161.382812 131.742188 161.617188 131.742188 C 161.855469 131.742188 162.054688 131.824219 162.222656 131.992188 C 162.390625 132.160156 162.472656 132.359375 162.472656 132.597656 Z M 162.472656 132.597656 " fill-opacity="1" fill-rule="nonzero"/><path fill="#222222" d="M 166.976562 130.960938 C 166.976562 131.195312 166.894531 131.398438 166.726562 131.566406 C 166.558594 131.730469 166.359375 131.816406 166.121094 131.816406 C 165.886719 131.816406 165.6875 131.730469 165.519531 131.566406 C 165.351562 131.398438 165.269531 131.195312 165.269531 130.960938 C 165.269531 130.726562 165.351562 130.523438 165.519531 130.355469 C 165.6875 130.191406 165.886719 130.105469 166.121094 130.105469 C 166.359375 130.105469 166.558594 130.191406 166.726562 130.355469 C 166.894531 130.523438 166.976562 130.726562 166.976562 130.960938 Z M 166.976562 130.960938 " fill-opacity="1" fill-rule="nonzero"/><path fill="#222222" d="M 168.09375 128.828125 C 168.09375 129.0625 168.007812 129.265625 167.84375 129.429688 C 167.675781 129.597656 167.472656 129.679688 167.238281 129.679688 C 167.003906 129.679688 166.800781 129.597656 166.632812 129.429688 C 166.46875 129.265625 166.382812 129.0625 166.382812 128.828125 C 166.382812 128.589844 166.46875 128.390625 166.632812 128.222656 C 166.800781 128.054688 167.003906 127.972656 167.238281 127.972656 C 167.472656 127.972656 167.675781 128.054688 167.84375 128.222656 C 168.007812 128.390625 168.09375 128.589844 168.09375 128.828125 Z M 168.09375 128.828125 " fill-opacity="1" fill-rule="nonzero"/><g clip-path="url(#46a1c4c015)"><path fill="#222222" d="M 169.082031 126.464844 C 169.082031 126.699219 169 126.902344 168.832031 127.070312 C 168.667969 127.234375 168.464844 127.320312 168.230469 127.320312 C 167.992188 127.320312 167.792969 127.234375 167.625 127.070312 C 167.457031 126.902344 167.375 126.699219 167.375 126.464844 C 167.375 126.226562 167.457031 126.027344 167.625 125.859375 C 167.792969 125.695312 167.992188 125.609375 168.230469 125.609375 C 168.464844 125.609375 168.667969 125.695312 168.832031 125.859375 C 169 126.027344 169.082031 126.226562 169.082031 126.464844 Z M 169.082031 126.464844 " fill-opacity="1" fill-rule="nonzero"/></g><path fill="#222222" d="M 159.449219 126.449219 C 159.449219 126.683594 159.367188 126.886719 159.199219 127.050781 C 159.03125 127.21875 158.832031 127.300781 158.59375 127.300781 C 158.359375 127.300781 158.15625 127.21875 157.992188 127.050781 C 157.824219 126.886719 157.742188 126.683594 157.742188 126.449219 C 157.742188 126.210938 157.824219 126.011719 157.992188 125.84375 C 158.15625 125.675781 158.359375 125.59375 158.59375 125.59375 C 158.832031 125.59375 159.03125 125.675781 159.199219 125.84375 C 159.367188 126.011719 159.449219 126.210938 159.449219 126.449219 Z M 159.449219 126.449219 " fill-opacity="1" fill-rule="nonzero"/><path fill="#222222" d="M 162.246094 122.417969 C 162.246094 122.652344 162.164062 122.855469 161.996094 123.019531 C 161.832031 123.1875 161.628906 123.269531 161.394531 123.269531 C 161.15625 123.269531 160.957031 123.1875 160.789062 123.019531 C 160.621094 122.855469 160.539062 122.652344 160.539062 122.417969 C 160.539062 122.179688 160.621094 121.980469 160.789062 121.8125 C 160.957031 121.644531 161.15625 121.5625 161.394531 121.5625 C 161.628906 121.5625 161.832031 121.644531 161.996094 121.8125 C 162.164062 121.980469 162.246094 122.179688 162.246094 122.417969 Z M 162.246094 122.417969 " fill-opacity="1" fill-rule="nonzero"/><path fill="#222222" d="M 168.230469 117.074219 C 168.230469 117.3125 168.144531 117.511719 167.980469 117.679688 C 167.8125 117.847656 167.609375 117.929688 167.375 117.929688 C 167.140625 117.929688 166.9375 117.847656 166.769531 117.679688 C 166.605469 117.511719 166.519531 117.3125 166.519531 117.074219 C 166.519531 116.839844 166.605469 116.636719 166.769531 116.472656 C 166.9375 116.304688 167.140625 116.222656 167.375 116.222656 C 167.609375 116.222656 167.8125 116.304688 167.980469 116.472656 C 168.144531 116.636719 168.230469 116.839844 168.230469 117.074219 Z M 168.230469 117.074219 " fill-opacity="1" fill-rule="nonzero"/><path fill="#222222" d="M 166.652344 119.957031 C 166.652344 120.195312 166.570312 120.394531 166.402344 120.5625 C 166.234375 120.730469 166.035156 120.8125 165.796875 120.8125 C 165.5625 120.8125 165.359375 120.730469 165.195312 120.5625 C 165.027344 120.394531 164.945312 120.195312 164.945312 119.957031 C 164.945312 119.722656 165.027344 119.519531 165.195312 119.355469 C 165.359375 119.1875 165.5625 119.105469 165.796875 119.105469 C 166.035156 119.105469 166.234375 119.1875 166.402344 119.355469 C 166.570312 119.519531 166.652344 119.722656 166.652344 119.957031 Z M 166.652344 119.957031 " fill-opacity="1" fill-rule="nonzero"/><path fill="#222222" d="M 164.542969 113.183594 C 164.542969 113.417969 164.457031 113.621094 164.292969 113.785156 C 164.125 113.953125 163.921875 114.035156 163.6875 114.035156 C 163.453125 114.035156 163.25 113.953125 163.082031 113.785156 C 162.917969 113.621094 162.832031 113.417969 162.832031 113.183594 C 162.832031 112.945312 162.917969 112.746094 163.082031 112.578125 C 163.25 112.410156 163.453125 112.328125 163.6875 112.328125 C 163.921875 112.328125 164.125 112.410156 164.292969 112.578125 C 164.457031 112.746094 164.542969 112.945312 164.542969 113.183594 Z M 164.542969 113.183594 " fill-opacity="1" fill-rule="nonzero"/><path fill="#222222" d="M 159.953125 120.472656 C 159.953125 120.707031 159.871094 120.90625 159.703125 121.074219 C 159.535156 121.242188 159.335938 121.324219 159.097656 121.324219 C 158.863281 121.324219 158.660156 121.242188 158.496094 121.074219 C 158.328125 120.90625 158.246094 120.707031 158.246094 120.472656 C 158.246094 120.234375 158.328125 120.035156 158.496094 119.867188 C 158.660156 119.699219 158.863281 119.617188 159.097656 119.617188 C 159.335938 119.617188 159.535156 119.699219 159.703125 119.867188 C 159.871094 120.035156 159.953125 120.234375 159.953125 120.472656 Z M 159.953125 120.472656 " fill-opacity="1" fill-rule="nonzero"/><path fill="#222222" d="M 162.246094 111.476562 C 162.246094 111.710938 162.164062 111.914062 161.996094 112.082031 C 161.832031 112.246094 161.628906 112.332031 161.394531 112.332031 C 161.15625 112.332031 160.957031 112.246094 160.789062 112.082031 C 160.621094 111.914062 160.539062 111.710938 160.539062 111.476562 C 160.539062 111.242188 160.621094 111.039062 160.789062 110.871094 C 160.957031 110.707031 161.15625 110.621094 161.394531 110.621094 C 161.628906 110.621094 161.832031 110.707031 161.996094 110.871094 C 162.164062 111.039062 162.246094 111.242188 162.246094 111.476562 Z M 162.246094 111.476562 " fill-opacity="1" fill-rule="nonzero"/><path fill="#222222" d="M 160.246094 109.769531 C 160.246094 110.003906 160.164062 110.207031 159.996094 110.371094 C 159.828125 110.539062 159.628906 110.621094 159.394531 110.621094 C 159.15625 110.621094 158.957031 110.539062 158.789062 110.371094 C 158.621094 110.207031 158.539062 110.003906 158.539062 109.769531 C 158.539062 109.53125 158.621094 109.332031 158.789062 109.164062 C 158.957031 108.996094 159.15625 108.914062 159.394531 108.914062 C 159.628906 108.914062 159.828125 108.996094 159.996094 109.164062 C 160.164062 109.332031 160.246094 109.53125 160.246094 109.769531 Z M 160.246094 109.769531 " fill-opacity="1" fill-rule="nonzero"/><path fill="#222222" d="M 165.269531 124.34375 C 165.269531 124.578125 165.183594 124.78125 165.019531 124.949219 C 164.851562 125.113281 164.648438 125.199219 164.414062 125.199219 C 164.179688 125.199219 163.976562 125.113281 163.808594 124.949219 C 163.644531 124.78125 163.558594 124.578125 163.558594 124.34375 C 163.558594 124.109375 163.644531 123.90625 163.808594 123.738281 C 163.976562 123.574219 164.179688 123.488281 164.414062 123.488281 C 164.648438 123.488281 164.851562 123.574219 165.019531 123.738281 C 165.183594 123.90625 165.269531 124.109375 165.269531 124.34375 Z M 165.269531 124.34375 " fill-opacity="1" fill-rule="nonzero"/><path fill="#222222" d="M 153.804688 127.714844 C 153.804688 127.953125 153.722656 128.152344 153.554688 128.320312 C 153.390625 128.488281 153.1875 128.570312 152.953125 128.570312 C 152.714844 128.570312 152.515625 128.488281 152.347656 128.320312 C 152.179688 128.152344 152.097656 127.953125 152.097656 127.714844 C 152.097656 127.480469 152.179688 127.277344 152.347656 127.113281 C 152.515625 126.945312 152.714844 126.863281 152.953125 126.863281 C 153.1875 126.863281 153.390625 126.945312 153.554688 127.113281 C 153.722656 127.277344 153.804688 127.480469 153.804688 127.714844 Z M 153.804688 127.714844 " fill-opacity="1" fill-rule="nonzero"/><path fill="#222222" d="M 155.148438 130.117188 C 155.148438 130.351562 155.0625 130.554688 154.898438 130.71875 C 154.730469 130.886719 154.527344 130.972656 154.292969 130.972656 C 154.058594 130.972656 153.855469 130.886719 153.6875 130.71875 C 153.523438 130.554688 153.4375 130.351562 153.4375 130.117188 C 153.4375 129.878906 153.523438 129.679688 153.6875 129.511719 C 153.855469 129.347656 154.058594 129.261719 154.292969 129.261719 C 154.527344 129.261719 154.730469 129.347656 154.898438 129.511719 C 155.0625 129.679688 155.148438 129.878906 155.148438 130.117188 Z M 155.148438 130.117188 " fill-opacity="1" fill-rule="nonzero"/><g transform="matrix(1, 0, 0, 1, 178, 137)"><g clip-path="url(#9fe11fb498)"><g clip-path="url(#ee2ee6903e)"><g fill="#000000" fill-opacity="1"><g transform="translate(0.135997, 17.423293)"><g><path d="M 9.546875 -1.34375 C 8.503906 -0.476562 7.316406 -0.046875 5.984375 -0.046875 C 4.472656 -0.046875 3.179688 -0.582031 2.109375 -1.65625 C 1.035156 -2.726562 0.5 -4.023438 0.5 -5.546875 C 0.5 -7.066406 1.035156 -8.363281 2.109375 -9.4375 C 3.179688 -10.507812 4.472656 -11.046875 5.984375 -11.046875 C 7.328125 -11.046875 8.515625 -10.609375 9.546875 -9.734375 L 7.90625 -8.109375 C 7.34375 -8.535156 6.703125 -8.75 5.984375 -8.75 C 5.109375 -8.75 4.359375 -8.4375 3.734375 -7.8125 C 3.109375 -7.1875 2.796875 -6.429688 2.796875 -5.546875 C 2.796875 -4.660156 3.109375 -3.90625 3.734375 -3.28125 C 4.359375 -2.65625 5.109375 -2.34375 5.984375 -2.34375 C 6.703125 -2.34375 7.34375 -2.554688 7.90625 -2.984375 Z M 9.546875 -1.34375 "/></g></g></g></g><g fill="#000000" fill-opacity="1"><g transform="translate(9.500577, 17.423293)"><g><path d="M 4.390625 -8.46875 C 5.554688 -8.476562 6.550781 -8.070312 7.375 -7.25 C 8.207031 -6.414062 8.625 -5.414062 8.625 -4.25 C 8.632812 -3.082031 8.226562 -2.085938 7.40625 -1.265625 C 6.59375 -0.429688 5.601562 -0.0078125 4.4375 0 C 3.257812 0.0078125 2.257812 -0.394531 1.4375 -1.21875 C 0.601562 -2.039062 0.1875 -3.035156 0.1875 -4.203125 C 0.175781 -5.378906 0.578125 -6.378906 1.390625 -7.203125 C 2.210938 -8.035156 3.210938 -8.457031 4.390625 -8.46875 Z M 5.890625 -2.765625 C 6.296875 -3.171875 6.5 -3.660156 6.5 -4.234375 C 6.5 -4.804688 6.289062 -5.300781 5.875 -5.71875 C 5.457031 -6.113281 4.960938 -6.3125 4.390625 -6.3125 C 3.816406 -6.3125 3.328125 -6.109375 2.921875 -5.703125 C 2.515625 -5.273438 2.3125 -4.78125 2.3125 -4.21875 C 2.3125 -3.65625 2.519531 -3.164062 2.9375 -2.75 C 3.34375 -2.34375 3.835938 -2.140625 4.421875 -2.140625 C 5.015625 -2.160156 5.503906 -2.367188 5.890625 -2.765625 Z M 5.890625 -2.765625 "/></g></g></g><g fill="#000000" fill-opacity="1"><g transform="translate(18.306775, 17.423293)"><g><path d="M 4.703125 -8.4375 C 5.910156 -8.53125 6.90625 -8.21875 7.6875 -7.5 C 8.53125 -6.71875 8.953125 -5.625 8.953125 -4.21875 L 8.953125 0 L 6.828125 0 L 6.828125 -4.171875 L 6.8125 -4.171875 L 6.8125 -4.203125 C 6.8125 -4.785156 6.609375 -5.28125 6.203125 -5.6875 C 5.796875 -6.09375 5.300781 -6.296875 4.71875 -6.296875 C 4.125 -6.273438 3.628906 -6.066406 3.234375 -5.671875 C 2.816406 -5.253906 2.617188 -4.757812 2.640625 -4.1875 L 2.640625 -4.171875 L 2.625 -4.171875 L 2.625 0 L 0.328125 0 L 0.328125 -8.5 L 2.625 -8.5 L 2.625 -7.390625 C 3.144531 -8.003906 3.835938 -8.351562 4.703125 -8.4375 Z M 4.703125 -8.4375 "/></g></g></g><g fill="#000000" fill-opacity="1"><g transform="translate(26.241955, 17.423293)"><g><path d="M 10.28125 -8.46875 L 6.34375 0 L 4.609375 0 L 0.5 -8.46875 L 3.171875 -8.46875 L 5.46875 -3.734375 L 7.609375 -8.46875 Z M 10.28125 -8.46875 "/></g></g></g><g fill="#000000" fill-opacity="1"><g transform="translate(35.655787, 17.423293)"><g><path d="M 4.390625 -8.46875 C 5.554688 -8.476562 6.550781 -8.070312 7.375 -7.25 C 8.207031 -6.414062 8.625 -5.414062 8.625 -4.25 C 8.632812 -3.082031 8.226562 -2.085938 7.40625 -1.265625 C 6.59375 -0.429688 5.601562 -0.0078125 4.4375 0 C 3.257812 0.0078125 2.257812 -0.394531 1.4375 -1.21875 C 0.601562 -2.039062 0.1875 -3.035156 0.1875 -4.203125 C 0.175781 -5.378906 0.578125 -6.378906 1.390625 -7.203125 C 2.210938 -8.035156 3.210938 -8.457031 4.390625 -8.46875 Z M 5.890625 -2.765625 C 6.296875 -3.171875 6.5 -3.660156 6.5 -4.234375 C 6.5 -4.804688 6.289062 -5.300781 5.875 -5.71875 C 5.457031 -6.113281 4.960938 -6.3125 4.390625 -6.3125 C 3.816406 -6.3125 3.328125 -6.109375 2.921875 -5.703125 C 2.515625 -5.273438 2.3125 -4.78125 2.3125 -4.21875 C 2.3125 -3.65625 2.519531 -3.164062 2.9375 -2.75 C 3.34375 -2.34375 3.835938 -2.140625 4.421875 -2.140625 C 5.015625 -2.160156 5.503906 -2.367188 5.890625 -2.765625 Z M 5.890625 -2.765625 "/></g></g></g><g fill="#000000" fill-opacity="1"><g transform="translate(43.788248, 17.423293)"><g><path d="M 7.390625 0 L 4.75 -2.625 L 2.125 0 L 0.5 -1.625 L 3.125 -4.25 L 0.5 -6.90625 L 2.125 -8.53125 L 4.75 -5.890625 L 7.390625 -8.53125 L 9.03125 -6.90625 L 6.375 -4.25 L 9.03125 -1.625 Z M 7.390625 0 "/></g></g></g><g fill="#000000" fill-opacity="1"><g transform="translate(52.807937, 17.423293)"><g><path d="M 8.703125 0 L 7.921875 -1.5 L 3.890625 -1.5 L 3.125 0 L 0.171875 0 L 5.921875 -10.6875 L 11.65625 0 Z M 6.890625 -3.5 L 5.921875 -5.375 L 4.9375 -3.5 Z M 6.890625 -3.5 "/></g></g></g><g fill="#000000" fill-opacity="1"><g transform="translate(64.62073, 17.423293)"><g><path d="M 2.78125 -11.453125 L 2.78125 -9.515625 L 0.5 -9.515625 L 0.5 -11.453125 Z M 2.796875 -8.453125 L 2.796875 0 L 0.5 0 L 0.5 -8.453125 Z M 2.796875 -8.453125 "/></g></g></g></g></g><g clip-path="url(#cf4d816246)"><path fill="#ffffff" d="M 201 115.914062 L 218.535156 115.914062 C 219.808594 115.914062 220.96875 116.433594 221.808594 117.273438 C 222.648438 118.109375 223.167969 119.273438 223.167969 120.546875 L 223.167969 130.652344 C 223.167969 131.929688 222.648438 133.085938 221.808594 133.925781 C 220.96875 134.765625 219.808594 135.285156 218.535156 135.285156 L 213.285156 135.285156 L 204.941406 141.988281 L 204.941406 135.285156 L 201 135.285156 C 199.722656 135.285156 198.566406 134.765625 197.726562 133.925781 C 196.886719 133.085938 196.367188 131.929688 196.367188 130.652344 L 196.367188 120.546875 C 196.367188 119.273438 196.886719 118.109375 197.726562 117.273438 C 198.566406 116.433594 199.722656 115.914062 201 115.914062 Z M 218.535156 118.601562 L 201 118.601562 C 200.46875 118.601562 199.980469 118.824219 199.628906 119.175781 C 199.273438 119.527344 199.058594 120.015625 199.058594 120.546875 L 199.058594 130.652344 C 199.058594 131.1875 199.273438 131.671875 199.628906 132.023438 C 199.980469 132.375 200.46875 132.597656 201 132.597656 L 207.632812 132.597656 L 207.632812 136.382812 L 211.976562 132.894531 L 212.816406 132.597656 L 218.535156 132.597656 C 219.066406 132.597656 219.550781 132.375 219.902344 132.023438 C 220.257812 131.671875 220.476562 131.1875 220.476562 130.652344 L 220.476562 120.546875 C 220.476562 120.015625 220.257812 119.527344 219.902344 119.175781 C 219.550781 118.824219 219.066406 118.601562 218.535156 118.601562 Z M 218.535156 118.601562 " fill-opacity="1" fill-rule="nonzero"/></g><path fill="#ffffff" d="M 207.484375 122.320312 L 207.484375 127.796875 C 207.484375 128.140625 207.203125 128.421875 206.863281 128.421875 L 204.9375 128.421875 C 204.59375 128.421875 204.3125 128.140625 204.3125 127.796875 L 204.3125 122.320312 C 204.3125 121.976562 204.59375 121.695312 204.9375 121.695312 L 206.863281 121.695312 C 207.203125 121.695312 207.484375 121.976562 207.484375 122.320312 Z M 207.484375 122.320312 " fill-opacity="1" fill-rule="evenodd"/><path fill="#ffffff" d="M 215.222656 122.320312 L 215.222656 127.796875 C 215.222656 128.140625 214.941406 128.421875 214.59375 128.421875 L 212.675781 128.421875 C 212.328125 128.421875 212.050781 128.140625 212.050781 127.796875 L 212.050781 122.320312 C 212.050781 121.976562 212.328125 121.695312 212.675781 121.695312 L 214.59375 121.695312 C 214.941406 121.695312 215.222656 121.976562 215.222656 122.320312 Z M 215.222656 122.320312 " fill-opacity="1" fill-rule="evenodd"/><path fill="#ffffff" d="M 208.40625 113.589844 L 211.128906 113.589844 L 211.128906 117.121094 L 208.40625 117.121094 Z M 208.40625 113.589844 " fill-opacity="1" fill-rule="evenodd"/><g clip-path="url(#4071c6bd07)"><path fill="#ffffff" d="M 209.769531 108.242188 C 211.4375 108.242188 212.796875 109.597656 212.796875 111.269531 C 212.796875 112.941406 211.4375 114.296875 209.769531 114.296875 C 208.097656 114.296875 206.742188 112.941406 206.742188 111.269531 C 206.742188 109.597656 208.097656 108.242188 209.769531 108.242188 Z M 209.769531 108.242188 " fill-opacity="1" fill-rule="evenodd"/></g><path fill="#ffffff" d="M 195.160156 128.566406 C 193.417969 128.566406 192.007812 127.15625 192.007812 125.414062 C 192.007812 123.671875 193.417969 122.261719 195.160156 122.261719 Z M 195.160156 128.566406 " fill-opacity="1" fill-rule="evenodd"/><g clip-path="url(#fcaab8be98)"><path fill="#ffffff" d="M 224.375 128.566406 C 226.117188 128.566406 227.527344 127.15625 227.527344 125.414062 C 227.527344 123.671875 226.117188 122.261719 224.375 122.261719 Z M 224.375 128.566406 " fill-opacity="1" fill-rule="evenodd"/></g><g clip-path="url(#a441e814ff)"><path fill="#ffffff" d="M 164.992188 159.976562 L 159.308594 159.976562 L 153.625 166.222656 L 159.308594 166.222656 Z M 172.546875 159.976562 L 166.863281 159.976562 L 161.179688 166.222656 L 166.863281 166.222656 Z M 180.101562 159.976562 L 174.417969 159.976562 L 168.734375 166.222656 L 174.417969 166.222656 Z M 142.007812 166.222656 L 151.585938 166.222656 L 158.289062 158.855469 L 221.992188 159.039062 L 223.457031 157.523438 L 150.265625 157.523438 Z M 231.542969 157.527344 L 225.414062 157.527344 L 223.949219 159.027344 L 230.078125 159.027344 Z M 239.628906 157.527344 L 233.5 157.527344 L 232.035156 159.027344 L 238.164062 159.027344 Z M 247.527344 157.527344 L 241.398438 157.527344 L 239.929688 159.027344 L 246.0625 159.027344 Z M 229.207031 160.011719 L 182.730469 160.011719 L 180.925781 161.875 L 227.402344 161.875 Z M 225.519531 164.339844 L 179.042969 164.339844 L 177.238281 166.207031 L 223.714844 166.207031 Z M 144.375 160.28125 L 137.835938 160.28125 L 135.652344 162.613281 L 120.460938 162.460938 L 120.460938 166.222656 L 138.738281 166.222656 Z M 144.375 160.28125 " fill-opacity="1" fill-rule="evenodd"/></g></svg>