<svg xmlns="http://www.w3.org/2000/svg" xmlns:xlink="http://www.w3.org/1999/xlink" width="500" zoomAndPan="magnify" viewBox="0 0 375 374.999991" height="500" preserveAspectRatio="xMidYMid meet" version="1.0"><defs><filter x="0%" y="0%" width="100%" height="100%" id="eb6473a8c5"><feColorMatrix values="0 0 0 0 1 0 0 0 0 1 0 0 0 0 1 0 0 0 1 0" color-interpolation-filters="sRGB"/></filter><g/><clipPath id="d6ee11ef0e"><path d="M 0 0 L 375 0 L 375 375 L 0 375 Z M 0 0 " clip-rule="nonzero"/></clipPath><clipPath id="cbd9b2ee99"><path d="M 187.5 0 C 83.945312 0 0 83.945312 0 187.5 C 0 291.054688 83.945312 375 187.5 375 C 291.054688 375 375 291.054688 375 187.5 C 375 83.945312 291.054688 0 187.5 0 Z M 187.5 0 " clip-rule="nonzero"/></clipPath><clipPath id="e130d84910"><path d="M 0 0 L 375 0 L 375 375 L 0 375 Z M 0 0 " clip-rule="nonzero"/></clipPath><clipPath id="111dc0e147"><path d="M 187.5 0 C 83.945312 0 0 83.945312 0 187.5 C 0 291.054688 83.945312 375 187.5 375 C 291.054688 375 375 291.054688 375 187.5 C 375 83.945312 291.054688 0 187.5 0 Z M 187.5 0 " clip-rule="nonzero"/></clipPath><clipPath id="89845576bf"><rect x="0" width="375" y="0" height="375"/></clipPath><mask id="4ac58b216b"><g filter="url(#eb6473a8c5)"><rect x="-82.5" width="540" fill="#000000" y="-82.499998" height="539.999987" fill-opacity="0.98"/></g></mask><clipPath id="3efbeca209"><path d="M 1 1.085938 L 287 1.085938 L 287 289.628906 L 1 289.628906 Z M 1 1.085938 " clip-rule="nonzero"/></clipPath><clipPath id="cd70613ac4"><rect x="0" width="288" y="0" height="292"/></clipPath><clipPath id="1155b4ff27"><path d="M 123 92 L 143.878906 92 L 143.878906 107 L 123 107 Z M 123 92 " clip-rule="nonzero"/></clipPath><clipPath id="0c10031cbb"><path d="M 50.148438 88 L 55 88 L 55 93 L 50.148438 93 Z M 50.148438 88 " clip-rule="nonzero"/></clipPath><clipPath id="9135a8b470"><path d="M 50.148438 104 L 55 104 L 55 109 L 50.148438 109 Z M 50.148438 104 " clip-rule="nonzero"/></clipPath><clipPath id="b7ad3fcea1"><path d="M 85 67.636719 L 90 67.636719 L 90 72 L 85 72 Z M 85 67.636719 " clip-rule="nonzero"/></clipPath><clipPath id="d1050d30dd"><path d="M 91 67.636719 L 96 67.636719 L 96 73 L 91 73 Z M 91 67.636719 " clip-rule="nonzero"/></clipPath><clipPath id="8dd92121b8"><path d="M 105 67.636719 L 110 67.636719 L 110 72 L 105 72 Z M 105 67.636719 " clip-rule="nonzero"/></clipPath><clipPath id="0e747f039b"><path d="M 105 156 L 110 156 L 110 159.53125 L 105 159.53125 Z M 105 156 " clip-rule="nonzero"/></clipPath><clipPath id="695a677855"><rect x="0" width="168" y="0" height="53"/></clipPath><clipPath id="3db3066703"><path d="M 209 89 L 275 89 L 275 153.578125 L 209 153.578125 Z M 209 89 " clip-rule="nonzero"/></clipPath><clipPath id="0bba501b94"><path d="M 234 70.875 L 250 70.875 L 250 86 L 234 86 Z M 234 70.875 " clip-rule="nonzero"/></clipPath><clipPath id="7449e1a10c"><path d="M 198.527344 105 L 207 105 L 207 121 L 198.527344 121 Z M 198.527344 105 " clip-rule="nonzero"/></clipPath><clipPath id="ce1087b918"><path d="M 277 105 L 284.90625 105 L 284.90625 121 L 277 121 Z M 277 105 " clip-rule="nonzero"/></clipPath><clipPath id="ba94062ddf"><path d="M 176.472656 191.496094 L 333.816406 191.496094 L 333.816406 200.6875 L 176.472656 200.6875 Z M 176.472656 191.496094 " clip-rule="nonzero"/></clipPath><clipPath id="0e1d18f6bb"><rect x="0" width="375" y="0" height="375"/></clipPath></defs><g transform="matrix(1, 0, 0, 1, 0, 0)"><g clip-path="url(#0e1d18f6bb)"><g clip-path="url(#d6ee11ef0e)"><g clip-path="url(#cbd9b2ee99)"><g transform="matrix(1, 0, 0, 1, 0, 0)"><g clip-path="url(#89845576bf)"><g clip-path="url(#e130d84910)"><g clip-path="url(#111dc0e147)"><rect x="-136.5" width="648" fill="#38b6ff" y="-136.499997" height="647.999984" fill-opacity="1"/></g></g></g></g></g></g><g mask="url(#4ac58b216b)"><g transform="matrix(1, 0, 0, 1, 43, 42)"><g clip-path="url(#cd70613ac4)"><g clip-path="url(#3efbeca209)"><path fill="#ffffff" d="M 271.4375 205.816406 C 262.367188 200.054688 249.785156 194.695312 236.027344 190.714844 C 222.402344 186.765625 208.996094 184.59375 198.277344 184.59375 C 183.773438 184.59375 175.242188 188.578125 172.882812 196.539062 C 172.878906 196.558594 171.960938 199.796875 170.800781 203.679688 C 170.742188 203.890625 170.675781 204.132812 170.628906 204.375 L 168.078125 213.210938 C 165.152344 212.378906 162.515625 210.804688 160.382812 208.566406 L 83.515625 128.6875 C 80.445312 125.488281 78.808594 121.21875 78.820312 116.730469 C 79.347656 116.578125 79.882812 116.417969 80.4375 116.246094 C 83.292969 116.554688 85.898438 116.039062 87.785156 114.925781 L 99.007812 108.738281 C 102.015625 107.058594 104.519531 105.671875 104.777344 105.523438 C 105.0625 105.402344 105.339844 105.265625 105.609375 105.117188 C 120.46875 96.832031 110.359375 66.113281 97.183594 42.320312 C 93.296875 35.296875 72.964844 0.253906 54.75 0.253906 C 52.464844 0.253906 50.332031 0.78125 48.40625 1.828125 C 48.304688 1.886719 48.199219 1.945312 48.097656 2.007812 L 41.925781 5.425781 C 41.707031 5.535156 41.464844 5.683594 41.230469 5.835938 C 32.082031 10.863281 25.449219 16.28125 18.402344 24.464844 C 13.816406 29.789062 10.054688 35.5625 7.222656 41.621094 C 1.464844 53.914062 -0.214844 67.160156 2.472656 78.996094 C 6.210938 114.609375 34.445312 162.132812 80.027344 209.519531 C 122.871094 254.066406 172.890625 284.902344 210.578125 289.996094 C 214.261719 290.492188 217.671875 290.734375 220.996094 290.734375 C 232.453125 290.734375 242.617188 287.738281 252.078125 281.5625 C 266.835938 271.941406 276.652344 258.347656 283.867188 237.578125 C 283.972656 237.285156 284.089844 236.90625 284.1875 236.511719 L 285.25 232.863281 C 285.714844 231.28125 286.050781 230.113281 286.066406 230.035156 C 286.160156 229.789062 286.246094 229.546875 286.316406 229.296875 C 288.605469 221.429688 283.59375 213.527344 271.4375 205.816406 Z M 271.4375 205.816406 " fill-opacity="1" fill-rule="nonzero"/></g></g></g></g><path fill="#5ce1e6" d="M 63.136719 79.128906 L 62.261719 78.246094 L 65.117188 75.394531 L 70.425781 75.394531 L 73.933594 71.886719 L 74.808594 72.769531 L 70.941406 76.644531 L 65.628906 76.644531 Z M 63.136719 79.128906 " fill-opacity="1" fill-rule="nonzero"/><path fill="#5ce1e6" d="M 61.199219 112.132812 L 57.292969 108.222656 L 57.292969 84.699219 L 58.535156 84.699219 L 58.535156 107.703125 L 62.082031 111.25 Z M 61.199219 112.132812 " fill-opacity="1" fill-rule="nonzero"/><path fill="#5ce1e6" d="M 51.617188 91.269531 L 52.863281 91.269531 L 52.863281 105.402344 L 51.617188 105.402344 Z M 51.617188 91.269531 " fill-opacity="1" fill-rule="nonzero"/><path fill="#5ce1e6" d="M 68.21875 109.410156 L 66.972656 109.410156 L 66.972656 105.101562 L 61.210938 99.339844 L 61.210938 84.078125 L 70.375 84.078125 L 80.863281 73.589844 L 81.742188 74.46875 L 70.894531 85.324219 L 62.464844 85.324219 L 62.464844 98.828125 L 68.21875 104.589844 Z M 68.21875 109.410156 " fill-opacity="1" fill-rule="nonzero"/><path fill="#5ce1e6" d="M 77.179688 108.960938 L 75.933594 108.960938 L 75.933594 85.945312 L 87.230469 74.648438 L 87.230469 70.007812 L 88.476562 70.007812 L 88.476562 75.164062 L 77.179688 86.457031 Z M 77.179688 108.960938 " fill-opacity="1" fill-rule="nonzero"/><path fill="#5ce1e6" d="M 69.308594 90.488281 L 70.554688 90.488281 L 70.554688 97.167969 L 69.308594 97.167969 Z M 69.308594 90.488281 " fill-opacity="1" fill-rule="nonzero"/><path fill="#5ce1e6" d="M 84.023438 108.960938 L 82.78125 108.960938 L 82.78125 90.230469 L 92.6875 80.324219 L 92.6875 70.785156 L 93.933594 70.785156 L 93.933594 80.835938 L 84.023438 90.742188 Z M 84.023438 108.960938 " fill-opacity="1" fill-rule="nonzero"/><path fill="#5ce1e6" d="M 86.859375 94.945312 L 92.59375 89.210938 L 93.472656 90.089844 L 87.738281 95.824219 Z M 86.859375 94.945312 " fill-opacity="1" fill-rule="nonzero"/><path fill="#5ce1e6" d="M 88.296875 104.507812 L 87.414062 103.625 L 97.582031 93.453125 L 97.582031 75.507812 L 98.828125 75.507812 L 98.828125 93.972656 Z M 88.296875 104.507812 " fill-opacity="1" fill-rule="nonzero"/><path fill="#5ce1e6" d="M 91.007812 114.816406 L 71.234375 114.816406 L 71.234375 113.574219 L 90.488281 113.574219 L 95.871094 108.191406 L 96.75 109.070312 Z M 91.007812 114.816406 " fill-opacity="1" fill-rule="nonzero"/><path fill="#5ce1e6" d="M 96.566406 119.269531 L 74.371094 119.269531 L 74.371094 118.023438 L 96.054688 118.023438 L 101.808594 112.265625 L 101.808594 97.832031 L 103.054688 97.832031 L 103.054688 112.78125 Z M 96.566406 119.269531 " fill-opacity="1" fill-rule="nonzero"/><path fill="#5ce1e6" d="M 93.292969 129.835938 L 84.464844 129.835938 L 78.824219 124.199219 L 79.707031 123.316406 L 84.976562 128.589844 L 93.292969 128.589844 Z M 93.292969 129.835938 " fill-opacity="1" fill-rule="nonzero"/><path fill="#5ce1e6" d="M 103.46875 147.824219 L 102.21875 147.824219 L 102.21875 129.476562 L 96.355469 123.605469 L 86.261719 123.605469 L 86.261719 122.359375 L 96.867188 122.359375 L 103.46875 128.957031 Z M 103.46875 147.824219 " fill-opacity="1" fill-rule="nonzero"/><path fill="#5ce1e6" d="M 106.589844 124.914062 L 105.707031 124.03125 L 109.046875 120.695312 L 137.847656 120.695312 L 137.847656 121.941406 L 109.566406 121.941406 Z M 106.589844 124.914062 " fill-opacity="1" fill-rule="nonzero"/><path fill="#5ce1e6" d="M 103.78125 118.941406 L 102.898438 118.058594 L 108.792969 112.164062 L 108.792969 94.226562 L 102.859375 88.296875 L 102.859375 74.042969 L 106.554688 70.347656 L 107.4375 71.230469 L 104.109375 74.558594 L 104.109375 87.777344 L 110.039062 93.714844 L 110.039062 112.679688 Z M 103.78125 118.941406 " fill-opacity="1" fill-rule="nonzero"/><path fill="#5ce1e6" d="M 117.371094 116.0625 L 117.375 114.816406 L 139 114.90625 L 138.996094 116.152344 Z M 117.371094 116.0625 " fill-opacity="1" fill-rule="nonzero"/><path fill="#5ce1e6" d="M 130.242188 111.363281 L 119.648438 111.363281 L 113.105469 104.824219 L 113.105469 94.238281 L 117.699219 89.640625 L 117.699219 74.03125 L 118.945312 74.03125 L 118.945312 90.160156 L 114.355469 94.75 L 114.355469 104.304688 L 120.167969 110.117188 L 130.242188 110.117188 Z M 130.242188 111.363281 " fill-opacity="1" fill-rule="nonzero"/><path fill="#5ce1e6" d="M 113.105469 84.257812 L 111.859375 84.257812 L 111.859375 80.835938 L 109.207031 78.179688 L 110.082031 77.296875 L 113.105469 80.316406 Z M 113.105469 84.257812 " fill-opacity="1" fill-rule="nonzero"/><path fill="#5ce1e6" d="M 118.347656 101.277344 L 117.464844 100.394531 L 122.902344 94.957031 L 122.902344 79.019531 L 124.148438 79.019531 L 124.148438 95.476562 Z M 118.347656 101.277344 " fill-opacity="1" fill-rule="nonzero"/><path fill="#5ce1e6" d="M 133.882812 100.019531 L 128.523438 94.664062 L 128.523438 83.167969 L 129.769531 83.167969 L 129.769531 94.144531 L 134.765625 99.140625 Z M 133.882812 100.019531 " fill-opacity="1" fill-rule="nonzero"/><g clip-path="url(#1155b4ff27)"><path fill="#5ce1e6" d="M 143.011719 106.230469 L 123.65625 106.230469 L 123.65625 104.988281 L 141.765625 104.988281 L 141.765625 97.738281 L 137.371094 93.34375 L 138.253906 92.46875 L 143.011719 97.226562 Z M 143.011719 106.230469 " fill-opacity="1" fill-rule="nonzero"/></g><path fill="#5ce1e6" d="M 108.507812 158.308594 L 107.265625 158.308594 L 107.265625 130.296875 L 111.636719 125.925781 L 134.042969 125.925781 L 134.042969 127.171875 L 112.152344 127.171875 L 108.507812 130.816406 Z M 108.507812 158.308594 " fill-opacity="1" fill-rule="nonzero"/><path fill="#5ce1e6" d="M 112.835938 145.460938 L 111.953125 144.585938 L 116.109375 140.421875 L 116.109375 129.933594 L 124.078125 129.933594 L 124.078125 131.179688 L 117.355469 131.179688 L 117.355469 140.941406 Z M 112.835938 145.460938 " fill-opacity="1" fill-rule="nonzero"/><path fill="#5ce1e6" d="M 64.792969 79.28125 C 64.792969 79.558594 64.742188 79.824219 64.632812 80.082031 C 64.527344 80.335938 64.375 80.5625 64.179688 80.757812 C 63.984375 80.957031 63.757812 81.105469 63.5 81.214844 C 63.246094 81.320312 62.976562 81.371094 62.699219 81.371094 C 62.421875 81.371094 62.15625 81.320312 61.898438 81.214844 C 61.644531 81.105469 61.417969 80.957031 61.21875 80.757812 C 61.023438 80.5625 60.871094 80.335938 60.765625 80.082031 C 60.660156 79.824219 60.605469 79.558594 60.605469 79.28125 C 60.605469 79 60.660156 78.734375 60.765625 78.476562 C 60.871094 78.222656 61.023438 77.996094 61.21875 77.800781 C 61.417969 77.601562 61.644531 77.453125 61.898438 77.34375 C 62.15625 77.238281 62.421875 77.1875 62.699219 77.1875 C 62.976562 77.1875 63.246094 77.238281 63.5 77.34375 C 63.757812 77.453125 63.984375 77.601562 64.179688 77.800781 C 64.375 77.996094 64.527344 78.222656 64.632812 78.476562 C 64.742188 78.734375 64.792969 79 64.792969 79.28125 Z M 64.792969 79.28125 " fill-opacity="1" fill-rule="nonzero"/><path fill="#5ce1e6" d="M 77.417969 71.824219 C 77.417969 72.101562 77.363281 72.367188 77.257812 72.625 C 77.152344 72.882812 77 73.105469 76.804688 73.304688 C 76.605469 73.5 76.378906 73.652344 76.125 73.757812 C 75.867188 73.863281 75.601562 73.917969 75.324219 73.917969 C 75.046875 73.917969 74.777344 73.863281 74.523438 73.757812 C 74.265625 73.652344 74.039062 73.5 73.84375 73.304688 C 73.648438 73.105469 73.496094 72.882812 73.390625 72.625 C 73.28125 72.367188 73.230469 72.101562 73.230469 71.824219 C 73.230469 71.546875 73.28125 71.277344 73.390625 71.023438 C 73.496094 70.765625 73.648438 70.539062 73.84375 70.34375 C 74.039062 70.148438 74.265625 69.996094 74.523438 69.890625 C 74.777344 69.785156 75.046875 69.730469 75.324219 69.730469 C 75.601562 69.730469 75.867188 69.785156 76.125 69.890625 C 76.378906 69.996094 76.605469 70.148438 76.804688 70.34375 C 77 70.539062 77.152344 70.765625 77.257812 71.023438 C 77.363281 71.277344 77.417969 71.546875 77.417969 71.824219 Z M 77.417969 71.824219 " fill-opacity="1" fill-rule="nonzero"/><path fill="#5ce1e6" d="M 83.777344 73.414062 C 83.777344 73.691406 83.722656 73.960938 83.617188 74.214844 C 83.511719 74.472656 83.359375 74.699219 83.164062 74.894531 C 82.96875 75.089844 82.742188 75.242188 82.484375 75.347656 C 82.226562 75.453125 81.960938 75.507812 81.683594 75.507812 C 81.40625 75.507812 81.140625 75.453125 80.882812 75.347656 C 80.625 75.242188 80.398438 75.089844 80.203125 74.894531 C 80.007812 74.699219 79.855469 74.472656 79.75 74.214844 C 79.644531 73.960938 79.589844 73.691406 79.589844 73.414062 C 79.589844 73.136719 79.644531 72.871094 79.75 72.613281 C 79.855469 72.359375 80.007812 72.132812 80.203125 71.933594 C 80.398438 71.738281 80.625 71.585938 80.882812 71.480469 C 81.140625 71.375 81.40625 71.320312 81.683594 71.320312 C 81.960938 71.320312 82.226562 71.375 82.484375 71.480469 C 82.742188 71.585938 82.96875 71.738281 83.164062 71.933594 C 83.359375 72.132812 83.511719 72.359375 83.617188 72.613281 C 83.722656 72.871094 83.777344 73.136719 83.777344 73.414062 Z M 83.777344 73.414062 " fill-opacity="1" fill-rule="nonzero"/><path fill="#5ce1e6" d="M 72.03125 89.652344 C 72.03125 89.929688 71.976562 90.199219 71.871094 90.453125 C 71.765625 90.710938 71.613281 90.9375 71.417969 91.132812 C 71.222656 91.328125 70.996094 91.480469 70.738281 91.585938 C 70.480469 91.695312 70.214844 91.746094 69.9375 91.746094 C 69.660156 91.746094 69.394531 91.695312 69.136719 91.585938 C 68.878906 91.480469 68.652344 91.328125 68.457031 91.132812 C 68.261719 90.9375 68.109375 90.710938 68.003906 90.453125 C 67.898438 90.199219 67.84375 89.929688 67.84375 89.652344 C 67.84375 89.375 67.898438 89.109375 68.003906 88.851562 C 68.109375 88.597656 68.261719 88.371094 68.457031 88.171875 C 68.652344 87.976562 68.878906 87.824219 69.136719 87.71875 C 69.394531 87.613281 69.660156 87.558594 69.9375 87.558594 C 70.214844 87.558594 70.480469 87.613281 70.738281 87.71875 C 70.996094 87.824219 71.222656 87.976562 71.417969 88.171875 C 71.613281 88.371094 71.765625 88.597656 71.871094 88.851562 C 71.976562 89.109375 72.03125 89.375 72.03125 89.652344 Z M 72.03125 89.652344 " fill-opacity="1" fill-rule="nonzero"/><path fill="#5ce1e6" d="M 72.03125 98.667969 C 72.03125 98.945312 71.976562 99.210938 71.871094 99.46875 C 71.765625 99.722656 71.613281 99.949219 71.417969 100.148438 C 71.222656 100.34375 70.996094 100.492188 70.738281 100.601562 C 70.480469 100.707031 70.214844 100.757812 69.9375 100.757812 C 69.660156 100.757812 69.394531 100.707031 69.136719 100.601562 C 68.878906 100.492188 68.652344 100.34375 68.457031 100.148438 C 68.261719 99.949219 68.109375 99.722656 68.003906 99.46875 C 67.898438 99.210938 67.84375 98.945312 67.84375 98.667969 C 67.84375 98.390625 67.898438 98.121094 68.003906 97.867188 C 68.109375 97.609375 68.261719 97.382812 68.457031 97.1875 C 68.652344 96.988281 68.878906 96.839844 69.136719 96.734375 C 69.394531 96.625 69.660156 96.574219 69.9375 96.574219 C 70.214844 96.574219 70.480469 96.625 70.738281 96.734375 C 70.996094 96.839844 71.222656 96.988281 71.417969 97.1875 C 71.613281 97.382812 71.765625 97.609375 71.871094 97.867188 C 71.976562 98.121094 72.03125 98.390625 72.03125 98.667969 Z M 72.03125 98.667969 " fill-opacity="1" fill-rule="nonzero"/><path fill="#5ce1e6" d="M 69.9375 109.597656 C 69.9375 109.878906 69.882812 110.144531 69.777344 110.402344 C 69.671875 110.65625 69.519531 110.882812 69.324219 111.078125 C 69.128906 111.277344 68.902344 111.425781 68.644531 111.535156 C 68.390625 111.640625 68.121094 111.691406 67.84375 111.691406 C 67.566406 111.691406 67.300781 111.640625 67.042969 111.535156 C 66.785156 111.425781 66.558594 111.277344 66.363281 111.078125 C 66.167969 110.882812 66.015625 110.65625 65.910156 110.402344 C 65.804688 110.144531 65.75 109.878906 65.75 109.597656 C 65.75 109.320312 65.804688 109.054688 65.910156 108.796875 C 66.015625 108.542969 66.167969 108.316406 66.363281 108.121094 C 66.558594 107.921875 66.785156 107.773438 67.042969 107.664062 C 67.300781 107.558594 67.566406 107.507812 67.84375 107.507812 C 68.121094 107.507812 68.390625 107.558594 68.644531 107.664062 C 68.902344 107.773438 69.128906 107.921875 69.324219 108.121094 C 69.519531 108.316406 69.671875 108.542969 69.777344 108.796875 C 69.882812 109.054688 69.9375 109.320312 69.9375 109.597656 Z M 69.9375 109.597656 " fill-opacity="1" fill-rule="nonzero"/><path fill="#5ce1e6" d="M 60.007812 83.804688 C 60.007812 84.082031 59.953125 84.351562 59.847656 84.605469 C 59.742188 84.863281 59.589844 85.089844 59.394531 85.285156 C 59.199219 85.484375 58.972656 85.632812 58.714844 85.738281 C 58.457031 85.847656 58.191406 85.898438 57.914062 85.898438 C 57.636719 85.898438 57.371094 85.847656 57.113281 85.738281 C 56.855469 85.632812 56.628906 85.484375 56.433594 85.285156 C 56.238281 85.089844 56.085938 84.863281 55.980469 84.605469 C 55.875 84.351562 55.820312 84.082031 55.820312 83.804688 C 55.820312 83.527344 55.875 83.261719 55.980469 83.003906 C 56.085938 82.75 56.238281 82.523438 56.433594 82.324219 C 56.628906 82.128906 56.855469 81.976562 57.113281 81.871094 C 57.371094 81.765625 57.636719 81.714844 57.914062 81.714844 C 58.191406 81.714844 58.457031 81.765625 58.714844 81.871094 C 58.972656 81.976562 59.199219 82.128906 59.394531 82.324219 C 59.589844 82.523438 59.742188 82.75 59.847656 83.003906 C 59.953125 83.261719 60.007812 83.527344 60.007812 83.804688 Z M 60.007812 83.804688 " fill-opacity="1" fill-rule="nonzero"/><path fill="#5ce1e6" d="M 63.929688 112.101562 C 63.929688 112.378906 63.875 112.648438 63.769531 112.902344 C 63.664062 113.160156 63.511719 113.386719 63.316406 113.582031 C 63.121094 113.777344 62.894531 113.929688 62.636719 114.035156 C 62.378906 114.140625 62.113281 114.195312 61.835938 114.195312 C 61.558594 114.195312 61.289062 114.140625 61.035156 114.035156 C 60.777344 113.929688 60.550781 113.777344 60.355469 113.582031 C 60.160156 113.386719 60.007812 113.160156 59.902344 112.902344 C 59.796875 112.648438 59.742188 112.378906 59.742188 112.101562 C 59.742188 111.824219 59.796875 111.558594 59.902344 111.300781 C 60.007812 111.042969 60.160156 110.820312 60.355469 110.621094 C 60.550781 110.425781 60.777344 110.273438 61.035156 110.167969 C 61.289062 110.0625 61.558594 110.007812 61.835938 110.007812 C 62.113281 110.007812 62.378906 110.0625 62.636719 110.167969 C 62.894531 110.273438 63.121094 110.425781 63.316406 110.621094 C 63.511719 110.820312 63.664062 111.042969 63.769531 111.300781 C 63.875 111.558594 63.929688 111.824219 63.929688 112.101562 Z M 63.929688 112.101562 " fill-opacity="1" fill-rule="nonzero"/><g clip-path="url(#0c10031cbb)"><path fill="#5ce1e6" d="M 54.332031 90.488281 C 54.332031 90.765625 54.28125 91.035156 54.175781 91.289062 C 54.066406 91.546875 53.917969 91.773438 53.71875 91.96875 C 53.523438 92.164062 53.296875 92.316406 53.042969 92.421875 C 52.785156 92.53125 52.519531 92.582031 52.238281 92.582031 C 51.960938 92.582031 51.695312 92.53125 51.4375 92.421875 C 51.183594 92.316406 50.957031 92.164062 50.761719 91.96875 C 50.5625 91.773438 50.414062 91.546875 50.304688 91.289062 C 50.199219 91.035156 50.148438 90.765625 50.148438 90.488281 C 50.148438 90.210938 50.199219 89.945312 50.304688 89.6875 C 50.414062 89.433594 50.5625 89.207031 50.761719 89.007812 C 50.957031 88.8125 51.183594 88.660156 51.4375 88.554688 C 51.695312 88.449219 51.960938 88.394531 52.238281 88.394531 C 52.519531 88.394531 52.785156 88.449219 53.042969 88.554688 C 53.296875 88.660156 53.523438 88.8125 53.71875 89.007812 C 53.917969 89.207031 54.066406 89.433594 54.175781 89.6875 C 54.28125 89.945312 54.332031 90.210938 54.332031 90.488281 Z M 54.332031 90.488281 " fill-opacity="1" fill-rule="nonzero"/></g><g clip-path="url(#9135a8b470)"><path fill="#5ce1e6" d="M 54.332031 106.15625 C 54.332031 106.433594 54.28125 106.703125 54.175781 106.957031 C 54.066406 107.214844 53.917969 107.441406 53.71875 107.636719 C 53.523438 107.832031 53.296875 107.984375 53.042969 108.089844 C 52.785156 108.195312 52.519531 108.25 52.238281 108.25 C 51.960938 108.25 51.695312 108.195312 51.4375 108.089844 C 51.183594 107.984375 50.957031 107.832031 50.761719 107.636719 C 50.5625 107.441406 50.414062 107.214844 50.304688 106.957031 C 50.199219 106.703125 50.148438 106.433594 50.148438 106.15625 C 50.148438 105.878906 50.199219 105.613281 50.304688 105.355469 C 50.414062 105.097656 50.5625 104.875 50.761719 104.675781 C 50.957031 104.480469 51.183594 104.328125 51.4375 104.222656 C 51.695312 104.117188 51.960938 104.0625 52.238281 104.0625 C 52.519531 104.0625 52.785156 104.117188 53.042969 104.222656 C 53.296875 104.328125 53.523438 104.480469 53.71875 104.675781 C 53.917969 104.875 54.066406 105.097656 54.175781 105.355469 C 54.28125 105.613281 54.332031 105.878906 54.332031 106.15625 Z M 54.332031 106.15625 " fill-opacity="1" fill-rule="nonzero"/></g><g clip-path="url(#b7ad3fcea1)"><path fill="#5ce1e6" d="M 89.945312 69.730469 C 89.945312 70.007812 89.894531 70.273438 89.789062 70.53125 C 89.679688 70.789062 89.53125 71.015625 89.332031 71.210938 C 89.136719 71.40625 88.910156 71.558594 88.65625 71.664062 C 88.398438 71.769531 88.132812 71.824219 87.855469 71.824219 C 87.578125 71.824219 87.308594 71.769531 87.054688 71.664062 C 86.796875 71.558594 86.570312 71.40625 86.375 71.210938 C 86.175781 71.015625 86.027344 70.789062 85.917969 70.53125 C 85.8125 70.273438 85.761719 70.007812 85.761719 69.730469 C 85.761719 69.453125 85.8125 69.1875 85.917969 68.929688 C 86.027344 68.671875 86.175781 68.445312 86.375 68.25 C 86.570312 68.054688 86.796875 67.902344 87.054688 67.796875 C 87.308594 67.691406 87.578125 67.636719 87.855469 67.636719 C 88.132812 67.636719 88.398438 67.691406 88.65625 67.796875 C 88.910156 67.902344 89.136719 68.054688 89.332031 68.25 C 89.53125 68.445312 89.679688 68.671875 89.789062 68.929688 C 89.894531 69.1875 89.945312 69.453125 89.945312 69.730469 Z M 89.945312 69.730469 " fill-opacity="1" fill-rule="nonzero"/></g><path fill="#5ce1e6" d="M 78.652344 108.960938 C 78.652344 109.238281 78.597656 109.503906 78.492188 109.761719 C 78.386719 110.015625 78.234375 110.242188 78.039062 110.441406 C 77.839844 110.636719 77.613281 110.789062 77.359375 110.894531 C 77.101562 111 76.835938 111.054688 76.558594 111.054688 C 76.28125 111.054688 76.011719 111 75.757812 110.894531 C 75.5 110.789062 75.273438 110.636719 75.078125 110.441406 C 74.878906 110.242188 74.730469 110.015625 74.625 109.761719 C 74.515625 109.503906 74.464844 109.238281 74.464844 108.960938 C 74.464844 108.683594 74.515625 108.414062 74.625 108.160156 C 74.730469 107.902344 74.878906 107.675781 75.078125 107.480469 C 75.273438 107.28125 75.5 107.132812 75.757812 107.027344 C 76.011719 106.917969 76.28125 106.867188 76.558594 106.867188 C 76.835938 106.867188 77.101562 106.917969 77.359375 107.027344 C 77.613281 107.132812 77.839844 107.28125 78.039062 107.480469 C 78.234375 107.675781 78.386719 107.902344 78.492188 108.160156 C 78.597656 108.414062 78.652344 108.683594 78.652344 108.960938 Z M 78.652344 108.960938 " fill-opacity="1" fill-rule="nonzero"/><path fill="#5ce1e6" d="M 85.496094 108.960938 C 85.496094 109.238281 85.441406 109.503906 85.335938 109.761719 C 85.230469 110.015625 85.078125 110.242188 84.882812 110.441406 C 84.6875 110.636719 84.460938 110.789062 84.203125 110.894531 C 83.945312 111 83.679688 111.054688 83.402344 111.054688 C 83.125 111.054688 82.859375 111 82.601562 110.894531 C 82.34375 110.789062 82.117188 110.636719 81.921875 110.441406 C 81.726562 110.242188 81.574219 110.015625 81.46875 109.761719 C 81.363281 109.503906 81.308594 109.238281 81.308594 108.960938 C 81.308594 108.683594 81.363281 108.414062 81.46875 108.160156 C 81.574219 107.902344 81.726562 107.675781 81.921875 107.480469 C 82.117188 107.28125 82.34375 107.132812 82.601562 107.027344 C 82.859375 106.917969 83.125 106.867188 83.402344 106.867188 C 83.679688 106.867188 83.945312 106.917969 84.203125 107.027344 C 84.460938 107.132812 84.6875 107.28125 84.882812 107.480469 C 85.078125 107.675781 85.230469 107.902344 85.335938 108.160156 C 85.441406 108.414062 85.496094 108.683594 85.496094 108.960938 Z M 85.496094 108.960938 " fill-opacity="1" fill-rule="nonzero"/><g clip-path="url(#d1050d30dd)"><path fill="#5ce1e6" d="M 95.402344 70.007812 C 95.402344 70.285156 95.347656 70.550781 95.242188 70.808594 C 95.136719 71.0625 94.984375 71.289062 94.789062 71.488281 C 94.59375 71.683594 94.367188 71.835938 94.109375 71.941406 C 93.851562 72.046875 93.585938 72.101562 93.308594 72.101562 C 93.03125 72.101562 92.765625 72.046875 92.507812 71.941406 C 92.25 71.835938 92.023438 71.683594 91.828125 71.488281 C 91.632812 71.289062 91.480469 71.0625 91.375 70.808594 C 91.269531 70.550781 91.214844 70.285156 91.214844 70.007812 C 91.214844 69.730469 91.269531 69.460938 91.375 69.207031 C 91.480469 68.949219 91.632812 68.722656 91.828125 68.527344 C 92.023438 68.332031 92.25 68.179688 92.507812 68.074219 C 92.765625 67.96875 93.03125 67.914062 93.308594 67.914062 C 93.585938 67.914062 93.851562 67.96875 94.109375 68.074219 C 94.367188 68.179688 94.59375 68.332031 94.789062 68.527344 C 94.984375 68.722656 95.136719 68.949219 95.242188 69.207031 C 95.347656 69.460938 95.402344 69.730469 95.402344 70.007812 Z M 95.402344 70.007812 " fill-opacity="1" fill-rule="nonzero"/></g><path fill="#5ce1e6" d="M 96.3125 88.394531 C 96.3125 88.671875 96.261719 88.941406 96.152344 89.199219 C 96.046875 89.453125 95.894531 89.679688 95.699219 89.875 C 95.503906 90.074219 95.277344 90.222656 95.019531 90.332031 C 94.765625 90.4375 94.496094 90.488281 94.21875 90.488281 C 93.941406 90.488281 93.675781 90.4375 93.417969 90.332031 C 93.164062 90.222656 92.9375 90.074219 92.738281 89.875 C 92.542969 89.679688 92.390625 89.453125 92.285156 89.199219 C 92.179688 88.941406 92.125 88.671875 92.125 88.394531 C 92.125 88.117188 92.179688 87.851562 92.285156 87.59375 C 92.390625 87.339844 92.542969 87.113281 92.738281 86.917969 C 92.9375 86.71875 93.164062 86.570312 93.417969 86.460938 C 93.675781 86.355469 93.941406 86.304688 94.21875 86.304688 C 94.496094 86.304688 94.765625 86.355469 95.019531 86.460938 C 95.277344 86.570312 95.503906 86.71875 95.699219 86.917969 C 95.894531 87.113281 96.046875 87.339844 96.152344 87.59375 C 96.261719 87.851562 96.3125 88.117188 96.3125 88.394531 Z M 96.3125 88.394531 " fill-opacity="1" fill-rule="nonzero"/><path fill="#5ce1e6" d="M 89.394531 95.386719 C 89.394531 95.664062 89.339844 95.929688 89.234375 96.1875 C 89.128906 96.441406 88.976562 96.667969 88.78125 96.867188 C 88.585938 97.0625 88.359375 97.210938 88.101562 97.320312 C 87.84375 97.425781 87.578125 97.476562 87.300781 97.476562 C 87.023438 97.476562 86.753906 97.425781 86.5 97.320312 C 86.242188 97.210938 86.015625 97.0625 85.820312 96.867188 C 85.625 96.667969 85.472656 96.441406 85.367188 96.1875 C 85.261719 95.929688 85.207031 95.664062 85.207031 95.386719 C 85.207031 95.109375 85.261719 94.839844 85.367188 94.585938 C 85.472656 94.328125 85.625 94.101562 85.820312 93.90625 C 86.015625 93.707031 86.242188 93.558594 86.5 93.453125 C 86.753906 93.34375 87.023438 93.292969 87.300781 93.292969 C 87.578125 93.292969 87.84375 93.34375 88.101562 93.453125 C 88.359375 93.558594 88.585938 93.707031 88.78125 93.90625 C 88.976562 94.101562 89.128906 94.328125 89.234375 94.585938 C 89.339844 94.839844 89.394531 95.109375 89.394531 95.386719 Z M 89.394531 95.386719 " fill-opacity="1" fill-rule="nonzero"/><path fill="#5ce1e6" d="M 98.734375 108.238281 C 98.734375 108.515625 98.683594 108.785156 98.574219 109.039062 C 98.46875 109.296875 98.316406 109.523438 98.121094 109.71875 C 97.925781 109.914062 97.699219 110.066406 97.441406 110.171875 C 97.1875 110.277344 96.917969 110.332031 96.640625 110.332031 C 96.363281 110.332031 96.097656 110.277344 95.839844 110.171875 C 95.585938 110.066406 95.359375 109.914062 95.160156 109.71875 C 94.964844 109.523438 94.8125 109.296875 94.707031 109.039062 C 94.601562 108.785156 94.546875 108.515625 94.546875 108.238281 C 94.546875 107.960938 94.601562 107.695312 94.707031 107.4375 C 94.8125 107.179688 94.964844 106.953125 95.160156 106.757812 C 95.359375 106.5625 95.585938 106.410156 95.839844 106.304688 C 96.097656 106.199219 96.363281 106.144531 96.640625 106.144531 C 96.917969 106.144531 97.1875 106.199219 97.441406 106.304688 C 97.699219 106.410156 97.925781 106.5625 98.121094 106.757812 C 98.316406 106.953125 98.46875 107.179688 98.574219 107.4375 C 98.683594 107.695312 98.734375 107.960938 98.734375 108.238281 Z M 98.734375 108.238281 " fill-opacity="1" fill-rule="nonzero"/><path fill="#5ce1e6" d="M 73.664062 114.195312 C 73.664062 114.472656 73.609375 114.738281 73.503906 114.996094 C 73.398438 115.253906 73.246094 115.480469 73.050781 115.675781 C 72.851562 115.871094 72.625 116.023438 72.371094 116.128906 C 72.113281 116.234375 71.847656 116.289062 71.570312 116.289062 C 71.292969 116.289062 71.023438 116.234375 70.769531 116.128906 C 70.511719 116.023438 70.285156 115.871094 70.089844 115.675781 C 69.894531 115.480469 69.742188 115.253906 69.636719 114.996094 C 69.527344 114.738281 69.476562 114.472656 69.476562 114.195312 C 69.476562 113.917969 69.527344 113.652344 69.636719 113.394531 C 69.742188 113.136719 69.894531 112.910156 70.089844 112.714844 C 70.285156 112.519531 70.511719 112.367188 70.769531 112.261719 C 71.023438 112.15625 71.292969 112.101562 71.570312 112.101562 C 71.847656 112.101562 72.113281 112.15625 72.371094 112.261719 C 72.625 112.367188 72.851562 112.519531 73.050781 112.714844 C 73.246094 112.910156 73.398438 113.136719 73.503906 113.394531 C 73.609375 113.652344 73.664062 113.917969 73.664062 114.195312 Z M 73.664062 114.195312 " fill-opacity="1" fill-rule="nonzero"/><path fill="#5ce1e6" d="M 75.753906 118.792969 C 75.753906 119.070312 75.703125 119.335938 75.597656 119.59375 C 75.488281 119.847656 75.339844 120.074219 75.144531 120.273438 C 74.945312 120.46875 74.71875 120.617188 74.464844 120.726562 C 74.207031 120.832031 73.941406 120.882812 73.664062 120.882812 C 73.386719 120.882812 73.117188 120.832031 72.863281 120.726562 C 72.605469 120.617188 72.378906 120.46875 72.183594 120.273438 C 71.984375 120.074219 71.835938 119.847656 71.730469 119.59375 C 71.621094 119.335938 71.570312 119.070312 71.570312 118.792969 C 71.570312 118.515625 71.621094 118.246094 71.730469 117.992188 C 71.835938 117.734375 71.984375 117.507812 72.183594 117.3125 C 72.378906 117.113281 72.605469 116.964844 72.863281 116.859375 C 73.117188 116.75 73.386719 116.699219 73.664062 116.699219 C 73.941406 116.699219 74.207031 116.75 74.464844 116.859375 C 74.71875 116.964844 74.945312 117.113281 75.144531 117.3125 C 75.339844 117.507812 75.488281 117.734375 75.597656 117.992188 C 75.703125 118.246094 75.753906 118.515625 75.753906 118.792969 Z M 75.753906 118.792969 " fill-opacity="1" fill-rule="nonzero"/><path fill="#5ce1e6" d="M 104.523438 97.167969 C 104.523438 97.445312 104.472656 97.710938 104.367188 97.96875 C 104.257812 98.222656 104.109375 98.449219 103.910156 98.648438 C 103.714844 98.84375 103.488281 98.996094 103.234375 99.101562 C 102.976562 99.207031 102.710938 99.261719 102.429688 99.261719 C 102.152344 99.261719 101.886719 99.207031 101.628906 99.101562 C 101.375 98.996094 101.148438 98.84375 100.953125 98.648438 C 100.753906 98.449219 100.605469 98.222656 100.496094 97.96875 C 100.390625 97.710938 100.339844 97.445312 100.339844 97.167969 C 100.339844 96.890625 100.390625 96.621094 100.496094 96.367188 C 100.605469 96.109375 100.753906 95.882812 100.953125 95.6875 C 101.148438 95.492188 101.375 95.339844 101.628906 95.234375 C 101.886719 95.125 102.152344 95.074219 102.429688 95.074219 C 102.710938 95.074219 102.976562 95.125 103.234375 95.234375 C 103.488281 95.339844 103.714844 95.492188 103.910156 95.6875 C 104.109375 95.882812 104.257812 96.109375 104.367188 96.367188 C 104.472656 96.621094 104.523438 96.890625 104.523438 97.167969 Z M 104.523438 97.167969 " fill-opacity="1" fill-rule="nonzero"/><path fill="#5ce1e6" d="M 89.945312 104.0625 C 89.945312 104.339844 89.894531 104.609375 89.789062 104.863281 C 89.679688 105.121094 89.53125 105.347656 89.332031 105.542969 C 89.136719 105.738281 88.910156 105.890625 88.65625 105.996094 C 88.398438 106.105469 88.132812 106.15625 87.855469 106.15625 C 87.578125 106.15625 87.308594 106.105469 87.054688 105.996094 C 86.796875 105.890625 86.570312 105.738281 86.375 105.542969 C 86.175781 105.347656 86.027344 105.121094 85.917969 104.863281 C 85.8125 104.609375 85.761719 104.339844 85.761719 104.0625 C 85.761719 103.785156 85.8125 103.519531 85.917969 103.261719 C 86.027344 103.007812 86.175781 102.78125 86.375 102.582031 C 86.570312 102.386719 86.796875 102.234375 87.054688 102.128906 C 87.308594 102.023438 87.578125 101.96875 87.855469 101.96875 C 88.132812 101.96875 88.398438 102.023438 88.65625 102.128906 C 88.910156 102.234375 89.136719 102.386719 89.332031 102.582031 C 89.53125 102.78125 89.679688 103.007812 89.789062 103.261719 C 89.894531 103.519531 89.945312 103.785156 89.945312 104.0625 Z M 89.945312 104.0625 " fill-opacity="1" fill-rule="nonzero"/><path fill="#5ce1e6" d="M 100.296875 76.003906 C 100.296875 76.28125 100.246094 76.546875 100.136719 76.804688 C 100.03125 77.0625 99.882812 77.289062 99.683594 77.484375 C 99.488281 77.679688 99.261719 77.832031 99.003906 77.9375 C 98.75 78.042969 98.480469 78.097656 98.203125 78.097656 C 97.925781 78.097656 97.660156 78.042969 97.402344 77.9375 C 97.148438 77.832031 96.921875 77.679688 96.722656 77.484375 C 96.527344 77.289062 96.378906 77.0625 96.269531 76.804688 C 96.164062 76.546875 96.113281 76.28125 96.113281 76.003906 C 96.113281 75.726562 96.164062 75.460938 96.269531 75.203125 C 96.378906 74.945312 96.527344 74.71875 96.722656 74.523438 C 96.921875 74.328125 97.148438 74.175781 97.402344 74.070312 C 97.660156 73.964844 97.925781 73.910156 98.203125 73.910156 C 98.480469 73.910156 98.75 73.964844 99.003906 74.070312 C 99.261719 74.175781 99.488281 74.328125 99.683594 74.523438 C 99.882812 74.71875 100.03125 74.945312 100.136719 75.203125 C 100.246094 75.460938 100.296875 75.726562 100.296875 76.003906 Z M 100.296875 76.003906 " fill-opacity="1" fill-rule="nonzero"/><g clip-path="url(#8dd92121b8)"><path fill="#5ce1e6" d="M 109.644531 69.730469 C 109.644531 70.007812 109.59375 70.273438 109.484375 70.53125 C 109.378906 70.789062 109.230469 71.015625 109.03125 71.210938 C 108.835938 71.40625 108.609375 71.558594 108.351562 71.664062 C 108.097656 71.769531 107.828125 71.824219 107.550781 71.824219 C 107.273438 71.824219 107.007812 71.769531 106.75 71.664062 C 106.496094 71.558594 106.269531 71.40625 106.070312 71.210938 C 105.875 71.015625 105.722656 70.789062 105.617188 70.53125 C 105.511719 70.273438 105.457031 70.007812 105.457031 69.730469 C 105.457031 69.453125 105.511719 69.1875 105.617188 68.929688 C 105.722656 68.671875 105.875 68.445312 106.070312 68.25 C 106.269531 68.054688 106.496094 67.902344 106.75 67.796875 C 107.007812 67.691406 107.273438 67.636719 107.550781 67.636719 C 107.828125 67.636719 108.097656 67.691406 108.351562 67.796875 C 108.609375 67.902344 108.835938 68.054688 109.03125 68.25 C 109.230469 68.445312 109.378906 68.671875 109.484375 68.929688 C 109.59375 69.1875 109.644531 69.453125 109.644531 69.730469 Z M 109.644531 69.730469 " fill-opacity="1" fill-rule="nonzero"/></g><path fill="#5ce1e6" d="M 111.0625 77.1875 C 111.0625 77.464844 111.011719 77.730469 110.90625 77.988281 C 110.796875 78.242188 110.648438 78.46875 110.449219 78.667969 C 110.253906 78.863281 110.027344 79.015625 109.773438 79.121094 C 109.515625 79.226562 109.25 79.28125 108.96875 79.28125 C 108.691406 79.28125 108.425781 79.226562 108.167969 79.121094 C 107.914062 79.015625 107.6875 78.863281 107.492188 78.667969 C 107.292969 78.46875 107.144531 78.242188 107.035156 77.988281 C 106.929688 77.730469 106.878906 77.464844 106.878906 77.1875 C 106.878906 76.910156 106.929688 76.640625 107.035156 76.386719 C 107.144531 76.128906 107.292969 75.902344 107.492188 75.707031 C 107.6875 75.511719 107.914062 75.359375 108.167969 75.253906 C 108.425781 75.144531 108.691406 75.09375 108.96875 75.09375 C 109.25 75.09375 109.515625 75.144531 109.773438 75.253906 C 110.027344 75.359375 110.253906 75.511719 110.449219 75.707031 C 110.648438 75.902344 110.796875 76.128906 110.90625 76.386719 C 111.011719 76.640625 111.0625 76.910156 111.0625 77.1875 Z M 111.0625 77.1875 " fill-opacity="1" fill-rule="nonzero"/><path fill="#5ce1e6" d="M 114.574219 85.253906 C 114.574219 85.53125 114.523438 85.796875 114.417969 86.054688 C 114.308594 86.3125 114.160156 86.539062 113.960938 86.734375 C 113.765625 86.929688 113.539062 87.082031 113.285156 87.1875 C 113.027344 87.292969 112.761719 87.347656 112.484375 87.347656 C 112.203125 87.347656 111.9375 87.292969 111.679688 87.1875 C 111.425781 87.082031 111.199219 86.929688 111.003906 86.734375 C 110.804688 86.539062 110.65625 86.3125 110.546875 86.054688 C 110.441406 85.796875 110.390625 85.53125 110.390625 85.253906 C 110.390625 84.976562 110.441406 84.707031 110.546875 84.453125 C 110.65625 84.195312 110.804688 83.96875 111.003906 83.773438 C 111.199219 83.578125 111.425781 83.425781 111.679688 83.320312 C 111.9375 83.214844 112.203125 83.160156 112.484375 83.160156 C 112.761719 83.160156 113.027344 83.214844 113.285156 83.320312 C 113.539062 83.425781 113.765625 83.578125 113.960938 83.773438 C 114.160156 83.96875 114.308594 84.195312 114.417969 84.453125 C 114.523438 84.707031 114.574219 84.976562 114.574219 85.253906 Z M 114.574219 85.253906 " fill-opacity="1" fill-rule="nonzero"/><path fill="#5ce1e6" d="M 87.589844 123.183594 C 87.589844 123.464844 87.535156 123.730469 87.429688 123.988281 C 87.324219 124.242188 87.171875 124.46875 86.976562 124.664062 C 86.777344 124.863281 86.554688 125.011719 86.296875 125.121094 C 86.039062 125.226562 85.773438 125.277344 85.496094 125.277344 C 85.21875 125.277344 84.949219 125.226562 84.695312 125.121094 C 84.4375 125.011719 84.210938 124.863281 84.015625 124.664062 C 83.820312 124.46875 83.667969 124.242188 83.5625 123.988281 C 83.457031 123.730469 83.402344 123.464844 83.402344 123.183594 C 83.402344 122.90625 83.457031 122.640625 83.5625 122.382812 C 83.667969 122.128906 83.820312 121.902344 84.015625 121.707031 C 84.210938 121.507812 84.4375 121.359375 84.695312 121.25 C 84.949219 121.144531 85.21875 121.09375 85.496094 121.09375 C 85.773438 121.09375 86.039062 121.144531 86.296875 121.25 C 86.554688 121.359375 86.777344 121.507812 86.976562 121.707031 C 87.171875 121.902344 87.324219 122.128906 87.429688 122.382812 C 87.535156 122.640625 87.589844 122.90625 87.589844 123.183594 Z M 87.589844 123.183594 " fill-opacity="1" fill-rule="nonzero"/><path fill="#5ce1e6" d="M 96.214844 129.210938 C 96.214844 129.488281 96.160156 129.757812 96.054688 130.011719 C 95.949219 130.269531 95.796875 130.496094 95.601562 130.691406 C 95.40625 130.886719 95.179688 131.039062 94.921875 131.144531 C 94.667969 131.25 94.398438 131.304688 94.121094 131.304688 C 93.84375 131.304688 93.578125 131.25 93.320312 131.144531 C 93.066406 131.039062 92.839844 130.886719 92.640625 130.691406 C 92.445312 130.496094 92.292969 130.269531 92.1875 130.011719 C 92.082031 129.757812 92.027344 129.488281 92.027344 129.210938 C 92.027344 128.933594 92.082031 128.667969 92.1875 128.410156 C 92.292969 128.152344 92.445312 127.925781 92.640625 127.730469 C 92.839844 127.535156 93.066406 127.382812 93.320312 127.277344 C 93.578125 127.171875 93.84375 127.117188 94.121094 127.117188 C 94.398438 127.117188 94.667969 127.171875 94.921875 127.277344 C 95.179688 127.382812 95.40625 127.535156 95.601562 127.730469 C 95.796875 127.925781 95.949219 128.152344 96.054688 128.410156 C 96.160156 128.667969 96.214844 128.933594 96.214844 129.210938 Z M 96.214844 129.210938 " fill-opacity="1" fill-rule="nonzero"/><path fill="#5ce1e6" d="M 81.03125 123.117188 C 81.03125 123.394531 80.980469 123.660156 80.871094 123.917969 C 80.765625 124.171875 80.613281 124.398438 80.417969 124.597656 C 80.222656 124.792969 79.996094 124.945312 79.738281 125.050781 C 79.484375 125.15625 79.214844 125.210938 78.9375 125.210938 C 78.660156 125.210938 78.394531 125.15625 78.136719 125.050781 C 77.882812 124.945312 77.65625 124.792969 77.457031 124.597656 C 77.261719 124.398438 77.109375 124.171875 77.003906 123.917969 C 76.898438 123.660156 76.84375 123.394531 76.84375 123.117188 C 76.84375 122.839844 76.898438 122.570312 77.003906 122.316406 C 77.109375 122.058594 77.261719 121.832031 77.457031 121.636719 C 77.65625 121.441406 77.882812 121.289062 78.136719 121.183594 C 78.394531 121.074219 78.660156 121.023438 78.9375 121.023438 C 79.214844 121.023438 79.484375 121.074219 79.738281 121.183594 C 79.996094 121.289062 80.222656 121.441406 80.417969 121.636719 C 80.617188 121.832031 80.765625 122.058594 80.871094 122.316406 C 80.980469 122.570312 81.03125 122.839844 81.03125 123.117188 Z M 81.03125 123.117188 " fill-opacity="1" fill-rule="nonzero"/><path fill="#5ce1e6" d="M 104.933594 147.824219 C 104.933594 148.101562 104.882812 148.371094 104.773438 148.625 C 104.667969 148.882812 104.515625 149.109375 104.320312 149.304688 C 104.125 149.503906 103.898438 149.652344 103.640625 149.757812 C 103.386719 149.867188 103.117188 149.917969 102.839844 149.917969 C 102.5625 149.917969 102.296875 149.867188 102.039062 149.757812 C 101.785156 149.652344 101.558594 149.503906 101.359375 149.304688 C 101.164062 149.109375 101.011719 148.882812 100.90625 148.625 C 100.800781 148.371094 100.746094 148.101562 100.746094 147.824219 C 100.746094 147.546875 100.800781 147.28125 100.90625 147.023438 C 101.011719 146.769531 101.164062 146.542969 101.359375 146.34375 C 101.558594 146.148438 101.785156 145.996094 102.039062 145.890625 C 102.296875 145.785156 102.5625 145.730469 102.839844 145.730469 C 103.117188 145.730469 103.386719 145.785156 103.640625 145.890625 C 103.898438 145.996094 104.125 146.148438 104.320312 146.34375 C 104.515625 146.542969 104.667969 146.769531 104.773438 147.023438 C 104.882812 147.28125 104.933594 147.546875 104.933594 147.824219 Z M 104.933594 147.824219 " fill-opacity="1" fill-rule="nonzero"/><g clip-path="url(#0e747f039b)"><path fill="#5ce1e6" d="M 109.980469 158.308594 C 109.980469 158.585938 109.925781 158.855469 109.820312 159.109375 C 109.714844 159.367188 109.5625 159.59375 109.367188 159.789062 C 109.171875 159.984375 108.945312 160.136719 108.6875 160.242188 C 108.429688 160.347656 108.164062 160.402344 107.886719 160.402344 C 107.609375 160.402344 107.34375 160.347656 107.085938 160.242188 C 106.828125 160.136719 106.601562 159.984375 106.40625 159.789062 C 106.210938 159.59375 106.058594 159.367188 105.953125 159.109375 C 105.847656 158.855469 105.792969 158.585938 105.792969 158.308594 C 105.792969 158.03125 105.847656 157.765625 105.953125 157.507812 C 106.058594 157.25 106.210938 157.023438 106.40625 156.828125 C 106.601562 156.632812 106.828125 156.480469 107.085938 156.375 C 107.34375 156.269531 107.609375 156.214844 107.886719 156.214844 C 108.164062 156.214844 108.429688 156.269531 108.6875 156.375 C 108.945312 156.480469 109.171875 156.632812 109.367188 156.828125 C 109.5625 157.023438 109.714844 157.25 109.820312 157.507812 C 109.925781 157.765625 109.980469 158.03125 109.980469 158.308594 Z M 109.980469 158.308594 " fill-opacity="1" fill-rule="nonzero"/></g><path fill="#5ce1e6" d="M 114.484375 145.390625 C 114.484375 145.667969 114.429688 145.9375 114.324219 146.191406 C 114.21875 146.449219 114.066406 146.675781 113.871094 146.871094 C 113.675781 147.070312 113.449219 147.21875 113.191406 147.324219 C 112.933594 147.433594 112.667969 147.484375 112.390625 147.484375 C 112.113281 147.484375 111.84375 147.433594 111.589844 147.324219 C 111.332031 147.21875 111.105469 147.070312 110.910156 146.871094 C 110.714844 146.675781 110.5625 146.449219 110.457031 146.191406 C 110.351562 145.9375 110.296875 145.667969 110.296875 145.390625 C 110.296875 145.113281 110.351562 144.847656 110.457031 144.589844 C 110.5625 144.335938 110.714844 144.109375 110.910156 143.910156 C 111.105469 143.714844 111.332031 143.566406 111.589844 143.457031 C 111.84375 143.351562 112.113281 143.300781 112.390625 143.300781 C 112.667969 143.300781 112.933594 143.351562 113.191406 143.457031 C 113.449219 143.566406 113.675781 143.714844 113.871094 143.910156 C 114.066406 144.109375 114.21875 144.335938 114.324219 144.589844 C 114.429688 144.847656 114.484375 145.113281 114.484375 145.390625 Z M 114.484375 145.390625 " fill-opacity="1" fill-rule="nonzero"/><path fill="#5ce1e6" d="M 126.171875 130.554688 C 126.171875 130.832031 126.117188 131.097656 126.011719 131.355469 C 125.90625 131.613281 125.753906 131.839844 125.558594 132.035156 C 125.363281 132.230469 125.136719 132.382812 124.878906 132.488281 C 124.625 132.59375 124.355469 132.648438 124.078125 132.648438 C 123.800781 132.648438 123.535156 132.59375 123.277344 132.488281 C 123.019531 132.382812 122.796875 132.230469 122.597656 132.035156 C 122.402344 131.839844 122.25 131.613281 122.144531 131.355469 C 122.039062 131.097656 121.984375 130.832031 121.984375 130.554688 C 121.984375 130.277344 122.039062 130.011719 122.144531 129.753906 C 122.25 129.496094 122.402344 129.269531 122.597656 129.074219 C 122.796875 128.878906 123.019531 128.726562 123.277344 128.621094 C 123.535156 128.515625 123.800781 128.460938 124.078125 128.460938 C 124.355469 128.460938 124.625 128.515625 124.878906 128.621094 C 125.136719 128.726562 125.363281 128.878906 125.558594 129.074219 C 125.753906 129.269531 125.90625 129.496094 126.011719 129.753906 C 126.117188 130.011719 126.171875 130.277344 126.171875 130.554688 Z M 126.171875 130.554688 " fill-opacity="1" fill-rule="nonzero"/><path fill="#5ce1e6" d="M 137.210938 126.546875 C 137.210938 126.824219 137.15625 127.09375 137.050781 127.347656 C 136.945312 127.605469 136.792969 127.832031 136.597656 128.027344 C 136.398438 128.222656 136.171875 128.375 135.917969 128.480469 C 135.660156 128.585938 135.394531 128.640625 135.117188 128.640625 C 134.839844 128.640625 134.570312 128.585938 134.316406 128.480469 C 134.058594 128.375 133.832031 128.222656 133.636719 128.027344 C 133.441406 127.832031 133.289062 127.605469 133.183594 127.347656 C 133.074219 127.09375 133.023438 126.824219 133.023438 126.546875 C 133.023438 126.269531 133.074219 126.003906 133.183594 125.746094 C 133.289062 125.488281 133.441406 125.261719 133.636719 125.066406 C 133.832031 124.871094 134.058594 124.71875 134.316406 124.613281 C 134.570312 124.507812 134.839844 124.453125 135.117188 124.453125 C 135.394531 124.453125 135.660156 124.507812 135.917969 124.613281 C 136.171875 124.71875 136.398438 124.871094 136.597656 125.066406 C 136.792969 125.261719 136.945312 125.488281 137.050781 125.746094 C 137.15625 126.003906 137.210938 126.269531 137.210938 126.546875 Z M 137.210938 126.546875 " fill-opacity="1" fill-rule="nonzero"/><path fill="#5ce1e6" d="M 139.941406 121.316406 C 139.941406 121.59375 139.890625 121.863281 139.78125 122.117188 C 139.675781 122.375 139.527344 122.601562 139.328125 122.796875 C 139.132812 122.992188 138.90625 123.144531 138.648438 123.25 C 138.394531 123.355469 138.125 123.410156 137.847656 123.410156 C 137.570312 123.410156 137.304688 123.355469 137.046875 123.25 C 136.792969 123.144531 136.566406 122.992188 136.367188 122.796875 C 136.171875 122.601562 136.023438 122.375 135.914062 122.117188 C 135.808594 121.863281 135.757812 121.59375 135.757812 121.316406 C 135.757812 121.039062 135.808594 120.773438 135.914062 120.515625 C 136.023438 120.257812 136.171875 120.035156 136.367188 119.835938 C 136.566406 119.640625 136.792969 119.488281 137.046875 119.382812 C 137.304688 119.277344 137.570312 119.222656 137.847656 119.222656 C 138.125 119.222656 138.394531 119.277344 138.648438 119.382812 C 138.90625 119.488281 139.132812 119.640625 139.328125 119.835938 C 139.527344 120.035156 139.675781 120.257812 139.78125 120.515625 C 139.890625 120.773438 139.941406 121.039062 139.941406 121.316406 Z M 139.941406 121.316406 " fill-opacity="1" fill-rule="nonzero"/><path fill="#5ce1e6" d="M 142.371094 115.527344 C 142.371094 115.804688 142.316406 116.070312 142.210938 116.328125 C 142.105469 116.585938 141.953125 116.8125 141.757812 117.007812 C 141.5625 117.203125 141.335938 117.355469 141.078125 117.460938 C 140.820312 117.566406 140.554688 117.621094 140.277344 117.621094 C 140 117.621094 139.730469 117.566406 139.476562 117.460938 C 139.21875 117.355469 138.992188 117.203125 138.796875 117.007812 C 138.601562 116.8125 138.449219 116.585938 138.34375 116.328125 C 138.238281 116.070312 138.183594 115.804688 138.183594 115.527344 C 138.183594 115.25 138.238281 114.984375 138.34375 114.726562 C 138.449219 114.46875 138.601562 114.242188 138.796875 114.046875 C 138.992188 113.851562 139.21875 113.699219 139.476562 113.59375 C 139.730469 113.488281 140 113.433594 140.277344 113.433594 C 140.554688 113.433594 140.820312 113.488281 141.078125 113.59375 C 141.335938 113.699219 141.5625 113.851562 141.757812 114.046875 C 141.953125 114.242188 142.105469 114.46875 142.210938 114.726562 C 142.316406 114.984375 142.371094 115.25 142.371094 115.527344 Z M 142.371094 115.527344 " fill-opacity="1" fill-rule="nonzero"/><path fill="#5ce1e6" d="M 118.761719 115.488281 C 118.761719 115.765625 118.710938 116.03125 118.601562 116.289062 C 118.496094 116.542969 118.34375 116.769531 118.148438 116.96875 C 117.953125 117.164062 117.726562 117.316406 117.46875 117.421875 C 117.214844 117.527344 116.945312 117.582031 116.667969 117.582031 C 116.390625 117.582031 116.125 117.527344 115.867188 117.421875 C 115.613281 117.316406 115.386719 117.164062 115.1875 116.96875 C 114.992188 116.769531 114.839844 116.542969 114.734375 116.289062 C 114.628906 116.03125 114.574219 115.765625 114.574219 115.488281 C 114.574219 115.210938 114.628906 114.941406 114.734375 114.6875 C 114.839844 114.429688 114.992188 114.203125 115.1875 114.007812 C 115.386719 113.8125 115.613281 113.660156 115.867188 113.554688 C 116.125 113.445312 116.390625 113.394531 116.667969 113.394531 C 116.945312 113.394531 117.214844 113.445312 117.46875 113.554688 C 117.726562 113.660156 117.953125 113.8125 118.148438 114.007812 C 118.34375 114.203125 118.496094 114.429688 118.601562 114.6875 C 118.710938 114.941406 118.761719 115.210938 118.761719 115.488281 Z M 118.761719 115.488281 " fill-opacity="1" fill-rule="nonzero"/><path fill="#5ce1e6" d="M 125.617188 105.609375 C 125.617188 105.886719 125.566406 106.152344 125.460938 106.410156 C 125.351562 106.667969 125.203125 106.894531 125.003906 107.089844 C 124.808594 107.285156 124.582031 107.4375 124.328125 107.542969 C 124.070312 107.648438 123.804688 107.703125 123.523438 107.703125 C 123.246094 107.703125 122.980469 107.648438 122.722656 107.542969 C 122.46875 107.4375 122.242188 107.285156 122.046875 107.089844 C 121.847656 106.894531 121.699219 106.667969 121.589844 106.410156 C 121.484375 106.152344 121.433594 105.886719 121.433594 105.609375 C 121.433594 105.332031 121.484375 105.066406 121.589844 104.808594 C 121.699219 104.550781 121.847656 104.324219 122.046875 104.128906 C 122.242188 103.933594 122.46875 103.78125 122.722656 103.675781 C 122.980469 103.570312 123.246094 103.515625 123.523438 103.515625 C 123.804688 103.515625 124.070312 103.570312 124.328125 103.675781 C 124.582031 103.78125 124.808594 103.933594 125.003906 104.128906 C 125.203125 104.324219 125.351562 104.550781 125.460938 104.808594 C 125.566406 105.066406 125.617188 105.332031 125.617188 105.609375 Z M 125.617188 105.609375 " fill-opacity="1" fill-rule="nonzero"/><path fill="#5ce1e6" d="M 140.277344 92.519531 C 140.277344 92.796875 140.222656 93.0625 140.117188 93.320312 C 140.011719 93.578125 139.859375 93.804688 139.664062 94 C 139.46875 94.195312 139.242188 94.347656 138.984375 94.453125 C 138.726562 94.558594 138.460938 94.613281 138.183594 94.613281 C 137.90625 94.613281 137.640625 94.558594 137.382812 94.453125 C 137.125 94.347656 136.898438 94.195312 136.703125 94 C 136.507812 93.804688 136.355469 93.578125 136.25 93.320312 C 136.144531 93.0625 136.089844 92.796875 136.089844 92.519531 C 136.089844 92.242188 136.144531 91.976562 136.25 91.71875 C 136.355469 91.460938 136.507812 91.234375 136.703125 91.039062 C 136.898438 90.84375 137.125 90.691406 137.382812 90.585938 C 137.640625 90.480469 137.90625 90.425781 138.183594 90.425781 C 138.460938 90.425781 138.726562 90.480469 138.984375 90.585938 C 139.242188 90.691406 139.46875 90.84375 139.664062 91.039062 C 139.859375 91.234375 140.011719 91.460938 140.117188 91.71875 C 140.222656 91.976562 140.277344 92.242188 140.277344 92.519531 Z M 140.277344 92.519531 " fill-opacity="1" fill-rule="nonzero"/><path fill="#5ce1e6" d="M 136.414062 99.582031 C 136.414062 99.859375 136.359375 100.128906 136.253906 100.382812 C 136.148438 100.640625 135.996094 100.867188 135.800781 101.0625 C 135.605469 101.257812 135.378906 101.410156 135.121094 101.515625 C 134.863281 101.625 134.597656 101.675781 134.320312 101.675781 C 134.042969 101.675781 133.777344 101.625 133.519531 101.515625 C 133.261719 101.410156 133.035156 101.257812 132.839844 101.0625 C 132.644531 100.867188 132.492188 100.640625 132.386719 100.382812 C 132.28125 100.128906 132.226562 99.859375 132.226562 99.582031 C 132.226562 99.304688 132.28125 99.039062 132.386719 98.78125 C 132.492188 98.527344 132.644531 98.300781 132.839844 98.101562 C 133.035156 97.90625 133.261719 97.753906 133.519531 97.648438 C 133.777344 97.542969 134.042969 97.488281 134.320312 97.488281 C 134.597656 97.488281 134.863281 97.542969 135.121094 97.648438 C 135.378906 97.753906 135.605469 97.90625 135.800781 98.101562 C 135.996094 98.300781 136.148438 98.527344 136.253906 98.78125 C 136.359375 99.039062 136.414062 99.304688 136.414062 99.582031 Z M 136.414062 99.582031 " fill-opacity="1" fill-rule="nonzero"/><path fill="#5ce1e6" d="M 131.242188 82.980469 C 131.242188 83.257812 131.1875 83.527344 131.082031 83.78125 C 130.976562 84.039062 130.824219 84.265625 130.628906 84.460938 C 130.429688 84.65625 130.203125 84.808594 129.949219 84.914062 C 129.691406 85.023438 129.425781 85.074219 129.148438 85.074219 C 128.871094 85.074219 128.601562 85.023438 128.347656 84.914062 C 128.089844 84.808594 127.863281 84.65625 127.667969 84.460938 C 127.472656 84.265625 127.320312 84.039062 127.214844 83.78125 C 127.109375 83.527344 127.054688 83.257812 127.054688 82.980469 C 127.054688 82.703125 127.109375 82.4375 127.214844 82.179688 C 127.320312 81.925781 127.472656 81.699219 127.667969 81.5 C 127.863281 81.304688 128.089844 81.152344 128.347656 81.046875 C 128.601562 80.941406 128.871094 80.886719 129.148438 80.886719 C 129.425781 80.886719 129.691406 80.941406 129.949219 81.046875 C 130.203125 81.152344 130.429688 81.304688 130.628906 81.5 C 130.824219 81.699219 130.976562 81.925781 131.082031 82.179688 C 131.1875 82.4375 131.242188 82.703125 131.242188 82.980469 Z M 131.242188 82.980469 " fill-opacity="1" fill-rule="nonzero"/><path fill="#5ce1e6" d="M 119.996094 100.839844 C 119.996094 101.117188 119.941406 101.386719 119.835938 101.640625 C 119.730469 101.898438 119.578125 102.125 119.382812 102.320312 C 119.1875 102.515625 118.960938 102.667969 118.703125 102.773438 C 118.449219 102.878906 118.179688 102.933594 117.902344 102.933594 C 117.625 102.933594 117.359375 102.878906 117.101562 102.773438 C 116.84375 102.667969 116.617188 102.515625 116.421875 102.320312 C 116.226562 102.125 116.074219 101.898438 115.96875 101.640625 C 115.863281 101.386719 115.808594 101.117188 115.808594 100.839844 C 115.808594 100.5625 115.863281 100.296875 115.96875 100.039062 C 116.074219 99.78125 116.226562 99.554688 116.421875 99.359375 C 116.617188 99.164062 116.84375 99.011719 117.101562 98.90625 C 117.359375 98.800781 117.625 98.746094 117.902344 98.746094 C 118.179688 98.746094 118.449219 98.800781 118.703125 98.90625 C 118.960938 99.011719 119.1875 99.164062 119.382812 99.359375 C 119.578125 99.554688 119.730469 99.78125 119.835938 100.039062 C 119.941406 100.296875 119.996094 100.5625 119.996094 100.839844 Z M 119.996094 100.839844 " fill-opacity="1" fill-rule="nonzero"/><path fill="#5ce1e6" d="M 125.617188 78.800781 C 125.617188 79.078125 125.566406 79.34375 125.460938 79.601562 C 125.351562 79.859375 125.203125 80.085938 125.003906 80.28125 C 124.808594 80.476562 124.582031 80.628906 124.328125 80.734375 C 124.070312 80.839844 123.804688 80.894531 123.523438 80.894531 C 123.246094 80.894531 122.980469 80.839844 122.722656 80.734375 C 122.46875 80.628906 122.242188 80.476562 122.046875 80.28125 C 121.847656 80.085938 121.699219 79.859375 121.589844 79.601562 C 121.484375 79.34375 121.433594 79.078125 121.433594 78.800781 C 121.433594 78.523438 121.484375 78.257812 121.589844 78 C 121.699219 77.742188 121.847656 77.515625 122.046875 77.320312 C 122.242188 77.125 122.46875 76.972656 122.722656 76.867188 C 122.980469 76.761719 123.246094 76.707031 123.523438 76.707031 C 123.804688 76.707031 124.070312 76.761719 124.328125 76.867188 C 124.582031 76.972656 124.808594 77.125 125.003906 77.320312 C 125.203125 77.515625 125.351562 77.742188 125.460938 78 C 125.566406 78.257812 125.617188 78.523438 125.617188 78.800781 Z M 125.617188 78.800781 " fill-opacity="1" fill-rule="nonzero"/><path fill="#5ce1e6" d="M 120.71875 74.613281 C 120.71875 74.890625 120.664062 75.160156 120.558594 75.414062 C 120.453125 75.671875 120.300781 75.898438 120.105469 76.09375 C 119.90625 76.289062 119.679688 76.441406 119.425781 76.546875 C 119.167969 76.65625 118.902344 76.707031 118.625 76.707031 C 118.347656 76.707031 118.078125 76.65625 117.824219 76.546875 C 117.566406 76.441406 117.339844 76.289062 117.144531 76.09375 C 116.949219 75.898438 116.796875 75.671875 116.691406 75.414062 C 116.582031 75.160156 116.53125 74.890625 116.53125 74.613281 C 116.53125 74.335938 116.582031 74.070312 116.691406 73.8125 C 116.796875 73.558594 116.949219 73.332031 117.144531 73.132812 C 117.339844 72.9375 117.566406 72.785156 117.824219 72.679688 C 118.078125 72.574219 118.347656 72.519531 118.625 72.519531 C 118.902344 72.519531 119.167969 72.574219 119.425781 72.679688 C 119.679688 72.785156 119.90625 72.9375 120.105469 73.132812 C 120.300781 73.332031 120.453125 73.558594 120.558594 73.8125 C 120.664062 74.070312 120.71875 74.335938 120.71875 74.613281 Z M 120.71875 74.613281 " fill-opacity="1" fill-rule="nonzero"/><path fill="#5ce1e6" d="M 133.023438 110.332031 C 133.023438 110.609375 132.96875 110.875 132.863281 111.132812 C 132.757812 111.390625 132.605469 111.617188 132.410156 111.8125 C 132.214844 112.007812 131.988281 112.160156 131.730469 112.265625 C 131.472656 112.371094 131.207031 112.425781 130.929688 112.425781 C 130.652344 112.425781 130.386719 112.371094 130.128906 112.265625 C 129.871094 112.160156 129.644531 112.007812 129.449219 111.8125 C 129.253906 111.617188 129.101562 111.390625 128.996094 111.132812 C 128.890625 110.875 128.835938 110.609375 128.835938 110.332031 C 128.835938 110.054688 128.890625 109.789062 128.996094 109.53125 C 129.101562 109.273438 129.253906 109.046875 129.449219 108.851562 C 129.644531 108.65625 129.871094 108.503906 130.128906 108.398438 C 130.386719 108.292969 130.652344 108.238281 130.929688 108.238281 C 131.207031 108.238281 131.472656 108.292969 131.730469 108.398438 C 131.988281 108.503906 132.214844 108.65625 132.410156 108.851562 C 132.605469 109.046875 132.757812 109.273438 132.863281 109.53125 C 132.96875 109.789062 133.023438 110.054688 133.023438 110.332031 Z M 133.023438 110.332031 " fill-opacity="1" fill-rule="nonzero"/><path fill="#5ce1e6" d="M 104.933594 118.59375 C 104.933594 118.871094 104.882812 119.140625 104.773438 119.394531 C 104.667969 119.652344 104.515625 119.878906 104.320312 120.074219 C 104.125 120.273438 103.898438 120.421875 103.640625 120.527344 C 103.386719 120.636719 103.117188 120.6875 102.839844 120.6875 C 102.5625 120.6875 102.296875 120.636719 102.039062 120.527344 C 101.785156 120.421875 101.558594 120.273438 101.359375 120.074219 C 101.164062 119.878906 101.011719 119.652344 100.90625 119.394531 C 100.800781 119.140625 100.746094 118.871094 100.746094 118.59375 C 100.746094 118.316406 100.800781 118.050781 100.90625 117.792969 C 101.011719 117.539062 101.164062 117.3125 101.359375 117.113281 C 101.558594 116.917969 101.785156 116.769531 102.039062 116.660156 C 102.296875 116.554688 102.5625 116.503906 102.839844 116.503906 C 103.117188 116.503906 103.386719 116.554688 103.640625 116.660156 C 103.898438 116.769531 104.125 116.917969 104.320312 117.113281 C 104.515625 117.3125 104.667969 117.539062 104.773438 117.792969 C 104.882812 118.050781 104.933594 118.316406 104.933594 118.59375 Z M 104.933594 118.59375 " fill-opacity="1" fill-rule="nonzero"/><path fill="#5ce1e6" d="M 108.222656 124.476562 C 108.222656 124.753906 108.167969 125.023438 108.0625 125.277344 C 107.957031 125.535156 107.804688 125.761719 107.609375 125.957031 C 107.410156 126.152344 107.183594 126.304688 106.929688 126.410156 C 106.671875 126.515625 106.40625 126.570312 106.128906 126.570312 C 105.851562 126.570312 105.582031 126.515625 105.328125 126.410156 C 105.070312 126.304688 104.84375 126.152344 104.648438 125.957031 C 104.453125 125.761719 104.300781 125.535156 104.195312 125.277344 C 104.085938 125.023438 104.035156 124.753906 104.035156 124.476562 C 104.035156 124.199219 104.085938 123.933594 104.195312 123.675781 C 104.300781 123.417969 104.453125 123.191406 104.648438 122.996094 C 104.84375 122.800781 105.070312 122.648438 105.328125 122.542969 C 105.582031 122.4375 105.851562 122.382812 106.128906 122.382812 C 106.40625 122.382812 106.671875 122.4375 106.929688 122.542969 C 107.183594 122.648438 107.410156 122.800781 107.609375 122.996094 C 107.804688 123.191406 107.957031 123.417969 108.0625 123.675781 C 108.167969 123.933594 108.222656 124.199219 108.222656 124.476562 Z M 108.222656 124.476562 " fill-opacity="1" fill-rule="nonzero"/><g transform="matrix(1, 0, 0, 1, 164, 143)"><g clip-path="url(#695a677855)"><g fill="#ffffff" fill-opacity="1"><g transform="translate(0.553791, 41.040069)"><g><path d="M 23.390625 -3.296875 C 20.835938 -1.179688 17.925781 -0.125 14.65625 -0.125 C 10.945312 -0.125 7.78125 -1.4375 5.15625 -4.0625 C 2.519531 -6.695312 1.203125 -9.863281 1.203125 -13.5625 C 1.203125 -17.300781 2.519531 -20.484375 5.15625 -23.109375 C 7.78125 -25.742188 10.945312 -27.0625 14.65625 -27.0625 C 17.957031 -27.0625 20.867188 -25.988281 23.390625 -23.84375 L 19.375 -19.84375 C 18 -20.894531 16.425781 -21.421875 14.65625 -21.421875 C 12.507812 -21.421875 10.671875 -20.65625 9.140625 -19.125 C 7.609375 -17.59375 6.84375 -15.738281 6.84375 -13.5625 C 6.84375 -11.414062 7.609375 -9.578125 9.140625 -8.046875 C 10.671875 -6.523438 12.507812 -5.765625 14.65625 -5.765625 C 16.425781 -5.765625 18 -6.285156 19.375 -7.328125 Z M 23.390625 -3.296875 "/></g></g></g><g fill="#ffffff" fill-opacity="1"><g transform="translate(23.501437, 41.040069)"><g><path d="M 10.75 -20.734375 C 13.625 -20.765625 16.066406 -19.769531 18.078125 -17.75 C 20.117188 -15.71875 21.140625 -13.273438 21.140625 -10.421875 C 21.160156 -7.554688 20.164062 -5.113281 18.15625 -3.09375 C 16.144531 -1.0625 13.71875 -0.03125 10.875 0 C 8 0.03125 5.539062 -0.960938 3.5 -2.984375 C 1.457031 -4.992188 0.4375 -7.4375 0.4375 -10.3125 C 0.414062 -13.175781 1.410156 -15.617188 3.421875 -17.640625 C 5.429688 -19.679688 7.875 -20.710938 10.75 -20.734375 Z M 14.421875 -6.765625 C 15.410156 -7.753906 15.90625 -8.960938 15.90625 -10.390625 C 15.90625 -11.785156 15.394531 -12.992188 14.375 -14.015625 C 13.351562 -14.984375 12.144531 -15.46875 10.75 -15.46875 C 9.351562 -15.46875 8.160156 -14.96875 7.171875 -13.96875 C 6.171875 -12.925781 5.671875 -11.71875 5.671875 -10.34375 C 5.671875 -8.945312 6.179688 -7.738281 7.203125 -6.71875 C 8.203125 -5.726562 9.410156 -5.234375 10.828125 -5.234375 C 12.273438 -5.285156 13.472656 -5.796875 14.421875 -6.765625 Z M 14.421875 -6.765625 "/></g></g></g><g fill="#ffffff" fill-opacity="1"><g transform="translate(45.080781, 41.040069)"><g><path d="M 11.515625 -20.65625 C 14.460938 -20.894531 16.90625 -20.128906 18.84375 -18.359375 C 20.90625 -16.453125 21.9375 -13.78125 21.9375 -10.34375 L 21.9375 0 L 16.703125 0 L 16.703125 -10.234375 L 16.671875 -10.234375 L 16.671875 -10.3125 C 16.671875 -11.726562 16.175781 -12.9375 15.1875 -13.9375 C 14.1875 -14.925781 12.976562 -15.421875 11.5625 -15.421875 C 10.101562 -15.367188 8.894531 -14.859375 7.9375 -13.890625 C 6.914062 -12.867188 6.429688 -11.660156 6.484375 -10.265625 L 6.484375 -10.234375 L 6.4375 -10.234375 L 6.4375 0 L 0.8125 0 L 0.8125 -20.8125 L 6.4375 -20.8125 L 6.4375 -18.125 C 7.695312 -19.625 9.390625 -20.46875 11.515625 -20.65625 Z M 11.515625 -20.65625 "/></g></g></g><g fill="#ffffff" fill-opacity="1"><g transform="translate(64.525719, 41.040069)"><g><path d="M 25.171875 -20.734375 L 15.546875 0 L 11.28125 0 L 1.203125 -20.734375 L 7.765625 -20.734375 L 13.40625 -9.140625 L 18.640625 -20.734375 Z M 25.171875 -20.734375 "/></g></g></g><g fill="#ffffff" fill-opacity="1"><g transform="translate(87.594053, 41.040069)"><g><path d="M 10.75 -20.734375 C 13.625 -20.765625 16.066406 -19.769531 18.078125 -17.75 C 20.117188 -15.71875 21.140625 -13.273438 21.140625 -10.421875 C 21.160156 -7.554688 20.164062 -5.113281 18.15625 -3.09375 C 16.144531 -1.0625 13.71875 -0.03125 10.875 0 C 8 0.03125 5.539062 -0.960938 3.5 -2.984375 C 1.457031 -4.992188 0.4375 -7.4375 0.4375 -10.3125 C 0.414062 -13.175781 1.410156 -15.617188 3.421875 -17.640625 C 5.429688 -19.679688 7.875 -20.710938 10.75 -20.734375 Z M 14.421875 -6.765625 C 15.410156 -7.753906 15.90625 -8.960938 15.90625 -10.390625 C 15.90625 -11.785156 15.394531 -12.992188 14.375 -14.015625 C 13.351562 -14.984375 12.144531 -15.46875 10.75 -15.46875 C 9.351562 -15.46875 8.160156 -14.96875 7.171875 -13.96875 C 6.171875 -12.925781 5.671875 -11.71875 5.671875 -10.34375 C 5.671875 -8.945312 6.179688 -7.738281 7.203125 -6.71875 C 8.203125 -5.726562 9.410156 -5.234375 10.828125 -5.234375 C 12.273438 -5.285156 13.472656 -5.796875 14.421875 -6.765625 Z M 14.421875 -6.765625 "/></g></g></g><g fill="#ffffff" fill-opacity="1"><g transform="translate(107.522424, 41.040069)"><g><path d="M 18.125 0 L 11.640625 -6.4375 L 5.1875 0 L 1.203125 -3.984375 L 7.65625 -10.421875 L 1.203125 -16.90625 L 5.1875 -20.890625 L 11.640625 -14.421875 L 18.125 -20.890625 L 22.109375 -16.90625 L 15.625 -10.421875 L 22.109375 -3.984375 Z M 18.125 0 "/></g></g></g><g fill="#ffffff" fill-opacity="1"><g transform="translate(129.624924, 41.040069)"><g><path d="M 21.296875 0 L 19.40625 -3.671875 L 9.546875 -3.671875 L 7.65625 0 L 0.40625 0 L 14.5 -26.171875 L 28.546875 0 Z M 16.875 -8.578125 L 14.5 -13.171875 L 12.078125 -8.578125 Z M 16.875 -8.578125 "/></g></g></g><g fill="#ffffff" fill-opacity="1"><g transform="translate(158.571845, 41.040069)"><g><path d="M 6.8125 -28.0625 L 6.8125 -23.3125 L 1.203125 -23.3125 L 1.203125 -28.0625 Z M 6.84375 -20.703125 L 6.84375 0 L 1.203125 0 L 1.203125 -20.703125 Z M 6.84375 -20.703125 "/></g></g></g></g></g><g clip-path="url(#3db3066703)"><path fill="#ffffff" d="M 220.585938 89.671875 L 263.546875 89.671875 C 266.671875 89.671875 269.515625 90.953125 271.570312 93.003906 C 273.628906 95.058594 274.898438 97.902344 274.898438 101.027344 L 274.898438 125.792969 C 274.898438 128.917969 273.628906 131.753906 271.570312 133.8125 C 269.515625 135.867188 266.671875 137.144531 263.546875 137.144531 L 250.683594 137.144531 L 230.238281 153.566406 L 230.238281 137.144531 L 220.585938 137.144531 C 217.453125 137.144531 214.617188 135.867188 212.5625 133.8125 C 210.503906 131.753906 209.222656 128.917969 209.222656 125.792969 L 209.222656 101.027344 C 209.222656 97.902344 210.503906 95.058594 212.5625 93.003906 C 214.617188 90.953125 217.453125 89.671875 220.585938 89.671875 Z M 263.546875 96.261719 L 220.585938 96.261719 C 219.28125 96.261719 218.082031 96.804688 217.21875 97.667969 C 216.355469 98.53125 215.824219 99.71875 215.824219 101.027344 L 215.824219 125.792969 C 215.824219 127.097656 216.355469 128.285156 217.21875 129.152344 C 218.082031 130.015625 219.28125 130.554688 220.585938 130.554688 L 236.835938 130.554688 L 236.835938 139.835938 L 247.476562 131.285156 L 249.539062 130.554688 L 263.546875 130.554688 C 264.851562 130.554688 266.042969 130.015625 266.90625 129.152344 C 267.769531 128.285156 268.308594 127.097656 268.308594 125.792969 L 268.308594 101.027344 C 268.308594 99.71875 267.769531 98.53125 266.90625 97.667969 C 266.042969 96.804688 264.851562 96.261719 263.546875 96.261719 Z M 263.546875 96.261719 " fill-opacity="1" fill-rule="nonzero"/></g><path fill="#ffffff" d="M 236.476562 105.375 L 236.476562 118.796875 C 236.476562 119.632812 235.78125 120.328125 234.945312 120.328125 L 230.226562 120.328125 C 229.390625 120.328125 228.699219 119.632812 228.699219 118.796875 L 228.699219 105.375 C 228.699219 104.527344 229.390625 103.84375 230.226562 103.84375 L 234.945312 103.84375 C 235.78125 103.84375 236.476562 104.527344 236.476562 105.375 Z M 236.476562 105.375 " fill-opacity="1" fill-rule="evenodd"/><path fill="#ffffff" d="M 255.4375 105.375 L 255.4375 118.796875 C 255.4375 119.632812 254.742188 120.328125 253.894531 120.328125 L 249.1875 120.328125 C 248.339844 120.328125 247.65625 119.632812 247.65625 118.796875 L 247.65625 105.375 C 247.65625 104.527344 248.339844 103.84375 249.1875 103.84375 L 253.894531 103.84375 C 254.742188 103.84375 255.4375 104.527344 255.4375 105.375 Z M 255.4375 105.375 " fill-opacity="1" fill-rule="evenodd"/><path fill="#ffffff" d="M 238.726562 83.984375 L 245.40625 83.984375 L 245.40625 92.636719 L 238.726562 92.636719 Z M 238.726562 83.984375 " fill-opacity="1" fill-rule="evenodd"/><g clip-path="url(#0bba501b94)"><path fill="#ffffff" d="M 242.066406 70.875 C 246.164062 70.875 249.484375 74.199219 249.484375 78.292969 C 249.484375 82.390625 246.164062 85.710938 242.066406 85.710938 C 237.96875 85.710938 234.648438 82.390625 234.648438 78.292969 C 234.648438 74.199219 237.96875 70.875 242.066406 70.875 Z M 242.066406 70.875 " fill-opacity="1" fill-rule="evenodd"/></g><g clip-path="url(#7449e1a10c)"><path fill="#ffffff" d="M 206.269531 120.679688 C 202.003906 120.679688 198.546875 117.222656 198.546875 112.953125 C 198.546875 108.6875 202.003906 105.230469 206.269531 105.230469 Z M 206.269531 120.679688 " fill-opacity="1" fill-rule="evenodd"/></g><g clip-path="url(#ce1087b918)"><path fill="#ffffff" d="M 277.863281 120.679688 C 282.128906 120.679688 285.585938 117.222656 285.585938 112.953125 C 285.585938 108.6875 282.128906 105.230469 277.863281 105.230469 Z M 277.863281 120.679688 " fill-opacity="1" fill-rule="evenodd"/></g><g clip-path="url(#ba94062ddf)"><path fill="#ffffff" d="M 132.347656 197.648438 L 118.421875 197.648438 L 104.492188 212.957031 L 118.421875 212.957031 Z M 150.855469 197.648438 L 136.925781 197.648438 L 123 212.957031 L 136.925781 212.957031 Z M 169.367188 197.648438 L 155.441406 197.648438 L 141.515625 212.957031 L 155.441406 212.957031 Z M 76.023438 212.957031 L 99.496094 212.957031 L 115.921875 194.902344 L 272.019531 195.355469 L 275.613281 191.636719 L 96.257812 191.636719 Z M 295.425781 191.648438 L 280.40625 191.648438 L 276.8125 195.320312 L 291.835938 195.320312 Z M 315.242188 191.648438 L 300.21875 191.648438 L 296.628906 195.320312 L 311.648438 195.320312 Z M 334.59375 191.648438 L 319.574219 191.648438 L 315.980469 195.320312 L 331 195.320312 Z M 289.707031 197.730469 L 175.816406 197.730469 L 171.390625 202.300781 L 285.28125 202.300781 Z M 280.671875 208.34375 L 166.777344 208.34375 L 162.355469 212.914062 L 276.246094 212.914062 Z M 81.828125 198.394531 L 65.796875 198.394531 L 60.453125 204.109375 L 23.226562 203.742188 L 23.226562 212.957031 L 68.007812 212.957031 Z M 81.828125 198.394531 " fill-opacity="1" fill-rule="evenodd"/></g></g></g></svg>